# Blender v2.92.0 OBJ File: ''
# www.blender.org
mtllib Sofa.mtl
o Sofa_1_Cube.006
v 2.080804 -0.000399 4.029257
v 2.080800 -0.000399 -4.029259
v 1.080422 -0.000399 4.029257
v -2.116315 -0.000399 4.029259
v -2.116319 -0.000399 -4.029257
v 1.080418 -0.000399 -4.029258
v 1.143790 2.366124 3.029459
v 1.183384 2.496647 3.029459
v 1.247681 2.616939 3.029459
v 1.334211 2.722375 3.029459
v 1.439647 2.808905 3.029459
v 1.559938 2.873201 3.029459
v 1.690462 2.912796 3.029459
v 1.130421 2.230383 3.029459
v 1.826202 2.926165 3.029459
v -2.052946 1.389560 3.029460
v -2.013352 1.520084 3.029460
v -1.949055 1.640375 3.029460
v -1.862526 1.745811 3.029460
v -1.757089 1.832341 3.029460
v -1.636798 1.896638 3.029460
v -1.506274 1.936232 3.029460
v -2.066315 1.253820 3.029460
v -1.370534 1.949601 3.029460
v 1.690459 2.912796 -3.015708
v 1.559935 2.873201 -3.015708
v 1.439644 2.808905 -3.015708
v 1.334208 2.722375 -3.015708
v 1.247679 2.616939 -3.015708
v 1.183381 2.496647 -3.015708
v 1.143788 2.366124 -3.015708
v 1.826199 2.926165 -3.015708
v 1.130418 2.230383 -3.015708
v -1.506277 1.936232 -3.015707
v -1.636801 1.896638 -3.015707
v -1.757092 1.832341 -3.015707
v -1.862528 1.745811 -3.015706
v -1.949058 1.640375 -3.015706
v -2.013355 1.520084 -3.015706
v -2.052949 1.389560 -3.015706
v -1.370537 1.949601 -3.015707
v -2.066318 1.253820 -3.015706
v 2.080800 0.991521 -3.015708
v 2.080803 0.991521 3.029458
v 2.030803 2.926165 3.029459
v 1.130421 1.949601 3.029459
v 2.030803 0.991521 3.029458
v -2.066315 0.991521 3.029460
v 2.030800 0.991521 -3.015708
v 2.030800 2.926165 -3.015708
v 1.130418 1.949601 -3.015708
v -2.066318 0.991521 -3.015706
vt 0.489805 0.725264
vt 0.516171 0.725264
vt 0.574812 0.759974
vt 0.535264 0.759974
vt 0.000000 0.000000
vt 0.000000 0.000000
vt 0.000000 0.000000
vt 0.000000 0.000000
vt 0.535264 0.800707
vt 0.535264 0.759974
vt 0.574812 0.759974
vt 0.574812 0.800707
vt 0.535264 0.759974
vt 0.574812 0.759974
vt 0.516171 0.725264
vt 0.489805 0.725264
vt 0.489805 0.725264
vt 0.516171 0.725264
vt 0.516171 0.725264
vt 0.489805 0.725264
vt 0.489805 0.725264
vt 0.516171 0.725264
vt 0.516171 0.725264
vt 0.489805 0.725264
vt 0.513704 0.857801
vt 0.513704 0.818253
vt 0.517281 0.818253
vt 0.517281 0.857801
vt 0.509984 0.857801
vt 0.502796 0.857801
vt 0.502796 0.818253
vt 0.509984 0.818253
vt 0.520577 0.818253
vt 0.520577 0.857801
vt 0.476985 0.759974
vt 0.424920 0.759974
vt 0.424920 0.759974
vt 0.476985 0.759974
vt 0.574812 0.807003
vt 0.535264 0.807003
vt 0.535264 0.805044
vt 0.574812 0.805044
vt 0.574812 0.802918
vt 0.535264 0.802918
vt 0.529051 0.818253
vt 0.529051 0.857801
vt 0.489805 0.725264
vt 0.516171 0.725264
vt 0.535264 0.759974
vt 0.574812 0.759974
vt 0.476985 0.812040
vt 0.424920 0.812040
vt 0.574812 0.812040
vt 0.535264 0.812040
vn -0.9808 0.1951 0.0000
vn -0.9988 0.0491 0.0000
vn 0.0000 1.0000 0.0000
vn -0.0491 0.9988 0.0000
vn -0.1951 0.9808 0.0000
vn -0.5556 0.8315 0.0000
vn -0.7071 0.7071 0.0000
vn -0.3827 0.9239 0.0000
vn -0.8315 0.5556 0.0000
vn -0.9239 0.3827 0.0000
vn -1.0000 0.0000 0.0000
vn 0.0000 -1.0000 -0.0000
usemtl Material.001
s 1
f 7/1/1 31/2/1 33/3/2 14/4/2
f 47/5/3 44/6/3 43/7/3 49/8/3
f 24/9/4 46/10/3 51/11/3 41/12/4
f 15/13/4 32/14/4 25/15/5 13/16/5
f 11/17/6 27/18/6 28/19/7 10/20/7
f 12/21/8 26/22/8 27/18/6 11/17/6
f 10/20/7 28/19/7 29/23/9 9/24/9
f 40/25/1 16/26/1 17/27/10 39/28/10
f 13/16/5 25/15/5 26/22/8 12/21/8
f 42/29/2 52/30/11 48/31/11 23/32/2
f 46/10/11 14/4/2 33/3/2 51/11/11
f 39/28/10 17/27/10 18/33/9 38/34/9
f 3/35/12 6/36/12 2/37/12 1/38/12
f 36/39/6 20/40/6 21/41/8 35/42/8
f 34/43/5 22/44/5 24/9/4 41/12/4
f 38/34/9 18/33/9 19/45/7 37/46/7
f 8/47/10 30/48/10 31/2/1 7/1/1
f 15/13/4 45/49/3 50/50/3 32/14/4
f 9/24/9 29/23/9 30/48/10 8/47/10
f 6/36/12 3/35/12 4/51/12 5/52/12
f 37/53/7 19/54/7 20/40/6 36/39/6
f 35/42/8 21/41/8 22/44/5 34/43/5
f 42/29/2 23/32/2 16/26/1 40/25/1
o Sofa_2_Cube.001
v 1.950151 1.999601 4.029257
v 1.211070 1.868948 -4.029258
v -1.985666 1.868948 -4.029257
v -1.985666 0.130254 -4.029257
v 1.080418 0.130254 -4.029258
v 1.950151 0.130254 4.029257
v 1.950147 0.130254 -4.029259
v 1.950147 1.999601 -4.029259
v 1.950147 2.845512 -4.029259
v 1.211070 2.845512 -4.029258
v 1.080421 0.130254 4.029257
v -1.985662 0.130254 4.029259
v -1.985662 1.868948 4.029259
v 1.211074 1.868948 4.029257
v 1.211074 2.845512 4.029257
v 1.950151 2.845512 4.029257
v 1.886111 2.781472 4.195257
v 1.950151 2.845512 4.131217
v 1.886107 2.781472 -4.195259
v 1.950147 2.845512 -4.131218
v 1.275114 2.781472 4.195257
v 1.211074 2.845512 4.131217
v 1.275110 2.781472 -4.195258
v 1.211070 2.845512 -4.131218
v 1.886111 1.999601 4.195257
v 1.950151 1.999601 4.131217
v 1.886111 0.194294 4.195257
v 1.950151 0.130254 4.131217
v 1.950147 0.130254 -4.131218
v 1.886107 0.194294 -4.195259
v 1.886107 1.999601 -4.195259
v 1.950147 1.999601 -4.131218
v 1.275114 1.804908 4.195257
v 1.211074 1.868948 4.131217
v 1.080421 0.194294 4.195257
v 1.080421 0.130254 4.131217
v -1.921622 1.804908 4.195259
v -1.985662 1.868948 4.131218
v -1.921622 0.194294 4.195259
v -1.985662 0.130254 4.131218
v 1.275110 1.804908 -4.195258
v 1.211070 1.868948 -4.131218
v 1.080417 0.194294 -4.195258
v 1.080417 0.130254 -4.131218
v -1.921626 1.804908 -4.195257
v -1.985666 1.868948 -4.131217
v -1.985666 0.130254 -4.131217
v -1.921626 0.194294 -4.195257
vt 0.082752 0.456075
vt 0.082569 0.502846
vt 0.082569 0.502846
vt 0.082752 0.456075
vt 0.122823 0.502021
vt 0.126758 0.456060
vt 0.126758 0.456060
vt 0.122823 0.502021
vt 0.126758 0.603940
vt 0.122823 0.557979
vt 0.122823 0.557979
vt 0.126758 0.603940
vt 0.082639 0.555691
vt 0.082569 0.557154
vt 0.082569 0.557154
vt 0.082639 0.555691
vt 0.082639 0.504309
vt 0.127173 0.504153
vt 0.127173 0.504153
vt 0.082639 0.504309
vt 0.129386 0.555467
vt 0.127173 0.555847
vt 0.127173 0.555847
vt 0.129386 0.555467
vt 0.129386 0.504533
vt 0.129386 0.504533
vt 0.129103 0.555351
vt 0.129103 0.555351
vt 0.082752 0.603925
vt 0.082752 0.603925
vt 0.129103 0.504649
vt 0.129103 0.504649
vt 0.120061 0.501253
vt 0.128469 0.504542
vt 0.128915 0.504446
vt 0.125829 0.503887
vt 0.084119 0.504031
vt 0.084046 0.501997
vt 0.084349 0.457009
vt 0.125082 0.456960
vt 0.128469 0.555457
vt 0.128915 0.555554
vt 0.084119 0.555969
vt 0.084046 0.558003
vt 0.084349 0.602991
vt 0.125082 0.603040
vt 0.120061 0.558747
vt 0.125829 0.556113
vn 0.0000 -1.0000 0.0000
vn 0.0000 1.0000 0.0000
vn 1.0000 0.0000 0.0000
vn -1.0000 0.0000 0.0000
vn -0.0000 0.0000 -1.0000
vn -0.4082 0.4082 -0.8165
vn -0.0000 0.7071 -0.7071
vn 0.0000 0.7071 0.7071
vn 0.0000 -0.7071 0.7071
vn 0.7071 0.0000 -0.7071
vn -0.4082 0.4082 0.8165
vn -0.7071 0.0000 0.7071
vn -0.0000 -0.7071 -0.7071
vn 0.7071 0.0000 0.7071
vn -0.7071 0.0000 -0.7071
vn 0.0000 -0.0000 1.0000
usemtl Material.001
s 1
f 99/55/13 96/56/13 57/57/13 56/58/13
f 94/59/14 98/60/14 55/61/14 54/62/14
f 90/63/14 86/64/14 66/65/14 65/66/14
f 80/67/13 88/68/13 63/69/13 58/70/13
f 81/71/15 84/72/15 60/73/15 59/74/15
f 70/75/15 78/76/15 53/77/15 68/78/15
f 98/60/16 99/55/16 56/58/16 55/61/16
f 78/76/15 80/67/15 58/70/15 53/77/15
f 84/72/15 72/79/15 61/80/15 60/73/15
f 74/81/14 70/75/14 68/78/14 67/82/14
f 92/83/16 90/63/16 65/66/16 64/84/16
f 76/85/16 94/59/16 54/62/16 62/86/16
f 96/56/13 81/71/13 59/74/13 57/57/13
f 72/79/14 76/85/14 62/86/14 61/80/14
f 86/64/16 74/81/16 67/82/16 66/65/16
f 88/68/13 92/83/13 64/84/13 63/69/13
f 93/87/17 75/88/17 71/89/17 83/90/17 82/91/17 95/92/17 100/93/17 97/94/17
f 76/85/18 72/79/19 71/89/19 75/88/18
f 70/75/20 74/81/20 73/95/20 69/96/20
f 88/68/21 80/67/21 79/97/21 87/98/21
f 84/72/22 81/71/22 82/91/22 83/90/22
f 90/63/23 92/83/24 91/99/24 89/100/23
f 83/90/22 71/89/22 72/79/22 84/72/22
f 96/56/25 99/55/25 100/93/25 95/92/25
f 86/64/20 90/63/23 89/100/23 85/101/20
f 92/83/21 88/68/21 87/98/21 91/99/21
f 69/96/26 77/102/26 78/76/26 70/75/26
f 74/81/24 86/64/24 85/101/24 73/95/24
f 99/55/27 98/60/27 97/94/27 100/93/27
f 81/71/25 96/56/25 95/92/25 82/91/25
f 77/102/26 79/97/26 80/67/26 78/76/26
f 75/88/18 93/87/27 94/59/27 76/85/18
f 98/60/19 94/59/19 93/87/19 97/94/19
f 77/102/28 69/96/28 73/95/28 85/101/28 89/100/28 91/99/28 87/98/28 79/97/28
o Sofa_3_Cube.007
v 1.950151 1.999601 4.029257
v 1.211070 1.868948 -4.029259
v -1.985666 1.868948 -4.029257
v -1.985666 0.130254 -4.029257
v 1.080417 0.130254 -4.029258
v 1.950151 0.130254 4.029257
v 1.950147 0.130254 -4.029259
v 1.950147 1.999601 -4.029259
v 1.950147 2.845512 -4.029259
v 1.211070 2.845512 -4.029259
v 1.080421 0.130254 4.029257
v -1.985662 0.130254 4.029259
v -1.985662 1.868948 4.029259
v 1.211074 1.868948 4.029257
v 1.211074 2.845512 4.029257
v 1.950151 2.845512 4.029257
v 1.080421 2.976165 4.029257
v 2.080803 2.976165 4.029256
v 2.080799 2.976165 -4.029259
v 1.080417 2.976165 -4.029258
v 2.080803 -0.000399 4.029256
v 2.080803 1.999601 4.029256
v 2.080799 -0.000399 -4.029259
v 2.080799 1.999601 -4.029259
v -2.116315 1.999601 4.029259
v 1.080421 1.999601 4.029257
v 1.080421 -0.000399 4.029257
v -2.116315 -0.000399 4.029259
v 1.080417 1.999601 -4.029258
v -2.116319 1.999601 -4.029257
v -2.116319 -0.000399 -4.029257
v 1.080417 -0.000399 -4.029258
v 1.143790 2.366124 3.029459
v 1.183384 2.496647 3.029459
v 1.247681 2.616939 3.029459
v 1.334210 2.722375 3.029459
v 1.439646 2.808905 3.029459
v 1.559938 2.873201 3.029459
v 1.690462 2.912796 3.029459
v 1.130421 2.230383 3.029459
v 1.826202 2.926165 3.029458
v -2.052947 1.389560 3.029460
v -2.013353 1.520084 3.029460
v -1.949056 1.640375 3.029460
v -1.862526 1.745811 3.029460
v -1.757090 1.832341 3.029460
v -1.636799 1.896638 3.029460
v -1.506275 1.936232 3.029460
v -2.066316 1.253820 3.029460
v -1.370535 1.949601 3.029460
v 1.690459 2.912796 -3.015708
v 1.559935 2.873201 -3.015708
v 1.439644 2.808905 -3.015708
v 1.334207 2.722375 -3.015708
v 1.247678 2.616939 -3.015708
v 1.183381 2.496647 -3.015708
v 1.143787 2.366124 -3.015708
v 1.826199 2.926165 -3.015708
v 1.130418 2.230383 -3.015708
v -1.506278 1.936232 -3.015707
v -1.636801 1.896638 -3.015707
v -1.757093 1.832341 -3.015707
v -1.862529 1.745811 -3.015707
v -1.949058 1.640375 -3.015707
v -2.013355 1.520084 -3.015707
v -2.052949 1.389560 -3.015707
v -1.370538 1.949601 -3.015707
v -2.066319 1.253820 -3.015707
v 1.080418 1.999601 -3.015708
v 2.080800 2.976165 -3.015708
v 1.080418 2.976165 -3.015708
v -2.116319 1.999601 -3.015706
v 2.080800 1.999601 -3.015708
v 2.080800 0.991521 -3.015708
v -2.116319 0.991521 -3.015706
v 2.080803 2.976165 3.029458
v -2.116316 0.991521 3.029460
v -2.116316 1.999601 3.029460
v 1.080421 1.999601 3.029459
v 1.080421 2.976165 3.029459
v 2.080803 1.999601 3.029458
v 2.080803 0.991521 3.029458
v 2.030803 1.999601 3.029458
v 2.030803 2.926165 3.029458
v 1.130421 1.949601 3.029459
v 2.030803 0.991521 3.029458
v -2.066316 0.991521 3.029460
v 2.030800 1.999601 -3.015708
v 2.030800 0.991521 -3.015708
v 2.030800 2.926165 -3.015708
v 1.130418 1.949601 -3.015708
v -2.066319 0.991521 -3.015707
vt 0.905861 0.520287
vt 0.882535 0.520206
vt 0.880874 0.520000
vt 0.907377 0.520000
vt 0.905644 0.545478
vt 0.903583 0.521404
vt 0.907377 0.520000
vt 0.907377 0.546502
vt 0.882594 0.468028
vt 0.882498 0.492526
vt 0.880874 0.493498
vt 0.880874 0.466995
vt 0.882535 0.493292
vt 0.905861 0.493210
vt 0.907377 0.493498
vt 0.880874 0.493498
vt 0.907020 0.493409
vt 0.906872 0.493470
vt 0.907377 0.493498
vt 0.907377 0.493498
vt 0.933879 0.520000
vt 0.930546 0.520000
vt 0.930546 0.520000
vt 0.933879 0.520000
vt 0.841121 0.466995
vt 0.841121 0.466995
vt 0.841121 0.466995
vt 0.841121 0.466995
vt 0.887400 0.502332
vt 0.887400 0.502332
vt 0.887400 0.502332
vt 0.887400 0.502332
vt 0.887400 0.502332
vt 0.887400 0.502332
vt 0.887400 0.502332
vt 0.841121 0.466995
vt 0.841121 0.466995
vt 0.841121 0.466995
vt 0.841121 0.466995
vt 0.841121 0.466995
vt 0.841121 0.466995
vt 0.841121 0.466995
vt 0.841121 0.466995
vt 0.841121 0.466995
vt 0.841121 0.466995
vt 0.841121 0.466995
vt 0.841121 0.466995
vt 0.841121 0.466995
vt 0.841121 0.466995
vt 0.841121 0.466995
vt 0.841121 0.466995
vt 0.841121 0.466995
vt 0.841121 0.466995
vt 0.841121 0.466995
vt 0.903583 0.492094
vt 0.905644 0.468020
vt 0.907377 0.466995
vt 0.907377 0.493498
vt 0.882594 0.545470
vt 0.880874 0.546502
vt 0.841121 0.466995
vt 0.841121 0.466995
vt 0.841121 0.466995
vt 0.841121 0.466995
vt 0.841121 0.466995
vt 0.841121 0.466995
vt 0.841121 0.466995
vt 0.841121 0.466995
vt 0.841121 0.466995
vt 0.841121 0.466995
vt 0.841121 0.466995
vt 0.841121 0.466995
vt 0.841121 0.466995
vt 0.841121 0.466995
vt 0.841121 0.466995
vt 0.841121 0.466995
vt 0.841121 0.466995
vt 0.841121 0.466995
vt 0.841121 0.466995
vt 0.841121 0.466995
vt 0.841121 0.466995
vt 0.841121 0.466995
vt 0.900820 0.502332
vt 0.900820 0.502332
vt 0.900820 0.502332
vt 0.900820 0.502332
vt 0.900820 0.502332
vt 0.900820 0.502332
vt 0.900820 0.502332
vt 0.841121 0.466995
vt 0.907377 0.496706
vt 0.907377 0.516837
vt 0.893676 0.516837
vt 0.893676 0.496706
vt 0.907377 0.516712
vt 0.907377 0.516712
vt 0.907377 0.520000
vt 0.907377 0.549790
vt 0.894018 0.549790
vt 0.894018 0.569671
vt 0.907377 0.569671
vt 0.907377 0.573005
vt 0.880874 0.573005
vt 0.930546 0.546502
vt 0.933879 0.546502
vt 0.907377 0.496706
vt 0.907377 0.516837
vt 0.910665 0.520000
vt 0.910665 0.546502
vt 0.910665 0.520000
vt 0.907377 0.520000
vt 0.910665 0.520000
vt 0.907377 0.496831
vt 0.907377 0.496831
vt 0.894018 0.496831
vt 0.894018 0.516712
vt 0.930546 0.520000
vt 0.933879 0.520000
vt 0.906872 0.520027
vt 0.907020 0.520088
vt 0.882498 0.520972
vt 0.880874 0.520000
vn 0.0000 0.0000 1.0000
vn -0.0000 0.0000 -1.0000
vn -1.0000 0.0000 0.0000
vn 1.0000 0.0000 -0.0000
vn 0.0000 1.0000 0.0000
usemtl Material.001
s 1
f 101/103/29 106/104/29 121/105/29 122/106/29
f 113/107/29 114/108/29 126/109/29 125/110/29
f 104/111/30 105/112/30 132/113/30 131/114/30
f 107/115/30 108/116/30 124/117/30 123/118/30
f 109/119/30 110/120/30 120/121/30 119/122/30
f 129/123/31 169/124/31 171/125/31 120/126/31
f 186/127/30 183/128/30 184/129/30 141/130/30 139/131/30 138/132/30 137/133/30 136/134/30 135/135/30 134/136/30 133/137/30 140/138/30 185/139/30 150/140/30 148/141/30 147/142/30 146/143/30 145/144/30 144/145/30 143/146/30 142/147/30 149/148/30 187/149/30 177/150/30 178/151/30 179/152/30 180/153/30 176/154/30 181/155/30 182/156/30
f 102/157/30 103/158/30 130/159/30 129/160/30
f 112/161/29 113/107/29 125/110/29 128/162/29
f 190/163/29 188/164/29 189/165/29 174/166/29 173/167/29 170/168/29 171/169/29 169/170/29 172/171/29 175/172/29 192/173/29 168/174/29 166/175/29 165/176/29 164/177/29 163/178/29 162/179/29 161/180/29 160/181/29 167/182/29 191/183/29 159/184/29 157/185/29 156/186/29 155/187/29 154/188/29 153/189/29 152/190/29 151/191/29 158/192/29
f 188/193/32 183/194/32 186/195/32 189/196/32
f 122/106/32 181/197/32 176/198/32 118/199/32
f 128/162/31 125/110/31 178/200/31 177/201/31 175/202/31 172/203/31 130/204/31 131/205/31
f 172/206/33 169/124/33 129/123/33 130/207/33
f 190/208/32 184/209/32 183/194/32 188/193/32
f 126/109/33 179/210/33 178/211/33 125/110/33
f 180/212/31 179/210/31 126/109/31 117/213/31
f 176/214/33 180/212/33 117/213/33 118/199/33
f 170/215/32 173/216/32 124/117/32 119/122/32
f 187/149/33 192/173/33 175/172/33 177/150/33
f 123/118/32 124/117/32 173/216/32 174/217/32 182/218/32 181/197/32 122/106/32 121/105/32
f 120/126/33 171/125/33 170/219/33 119/220/33
f 115/221/29 116/222/29 118/199/29 117/213/29
f 110/120/30 102/157/30 129/160/30 120/121/30
f 105/112/30 107/115/30 123/118/30 132/113/30
f 111/223/29 112/161/29 128/162/29 127/224/29
f 114/108/29 115/221/29 117/213/29 126/109/29
f 116/222/29 101/103/29 122/106/29 118/199/29
f 103/158/30 104/111/30 131/114/30 130/159/30
f 106/104/29 111/223/29 127/224/29 121/105/29
f 108/116/30 109/119/30 119/122/30 124/117/30
