# Blender v2.92.0 OBJ File: 'Monitor3.blend'
# www.blender.org
mtllib Monitor3.mtl
o Cube
v -0.434635 -0.042211 -0.038016
v 0.434635 -0.042211 -0.038016
v -1.431198 -0.042211 -0.106759
v 1.068504 0.096735 -0.038016
v -0.434635 0.096735 -0.106759
v -1.068504 0.096735 -0.038016
v -1.431198 0.002995 -0.038016
v 1.431198 0.002995 -0.106759
v -1.068504 0.096735 -0.106759
v 1.431198 0.002995 -0.106759
v 1.431198 -0.042211 -0.038016
v 1.431198 -0.042211 -0.106759
v -1.431198 -0.042211 -0.038016
v -1.431198 0.002995 -0.038016
v -1.431198 0.002995 -0.106759
v -1.431198 0.002995 -0.106759
v 0.434635 0.096735 -0.106759
v 1.068504 0.096735 -0.106759
v 1.431198 0.002995 -0.038016
v 1.431198 0.002995 -0.038016
v -0.434635 0.096735 -0.038016
v 0.434635 0.096735 -0.038016
v -0.434635 -0.042211 -0.106759
v 0.434635 -0.042211 -0.106759
v 2.309643 0.369509 0.015964
v -2.309643 0.369509 0.015964
v -2.309643 2.330203 0.015964
v 2.309643 2.330203 0.015964
v 2.355944 0.349856 0.038016
v -2.355944 0.349856 0.038016
v -2.355944 2.349856 0.038016
v 2.355944 2.349856 0.038016
v 0.434635 1.534340 -0.066439
v 0.434635 1.165372 -0.106759
v -0.434635 1.165372 -0.106759
v -0.434635 1.534340 -0.066439
v -1.431198 -0.042211 -0.140061
v 1.431198 -0.042211 -0.140061
v -0.434635 -0.042211 -0.140061
v -1.431198 -0.042211 -0.004714
v -0.434635 -0.042211 -0.004714
v 1.431198 -0.042211 -0.004714
v 0.434635 -0.042211 -0.140061
v 0.434635 -0.042211 -0.004714
v 1.068504 0.096735 -0.004714
v 1.431198 0.002995 -0.004714
v -1.431198 0.002995 -0.004714
v -1.068504 0.096735 -0.004714
v 1.431198 0.002995 -0.140061
v 1.068504 0.096735 -0.140061
v -1.068504 0.096735 -0.140061
v -1.431198 0.002995 -0.140061
v 0.434635 1.534340 -0.038016
v 0.434635 1.165372 -0.038016
v 2.309643 2.330203 0.038016
v 2.309643 0.369509 0.038016
v -0.434635 1.534340 -0.038016
v -0.434635 1.165372 -0.038016
v -2.309643 2.330203 0.038016
v -2.309643 0.369509 0.038016
v 2.355944 0.349856 -0.038016
v -2.355944 0.349856 -0.038016
v 2.355944 2.349856 -0.038016
v -2.355944 2.349856 -0.038016
v 0.434635 1.165372 -0.106759
v -0.434635 1.165372 -0.106759
v 1.431198 0.002995 -0.004714
v -1.431198 0.002995 -0.004714
v 1.431198 0.002995 -0.140061
v -1.431198 0.002995 -0.140061
v -0.434635 0.096735 -0.140061
v 0.434635 0.096735 -0.004714
v 0.434635 0.096735 -0.140061
v -0.434635 0.096735 -0.004714
vt 0.252849 0.417012
vt 0.225465 0.417012
vt 0.164940 0.356487
vt 0.313374 0.356487
vt 0.225465 0.444396
vt 0.225465 0.444396
vt 0.225465 0.444396
vt 0.225465 0.444396
vt 0.225465 0.444396
vt 0.225465 0.444396
vt 0.225465 0.444396
vt 0.225465 0.444396
vt 0.225465 0.444396
vt 0.225465 0.444396
vt 0.225465 0.444396
vt 0.166398 0.654815
vt 0.311916 0.654815
vt 0.311916 0.654815
vt 0.166398 0.654815
vt 0.164940 0.208052
vt 0.313374 0.208052
vt 0.166398 0.800333
vt 0.166398 0.800333
vt 0.225465 0.417012
vt 0.225465 0.417012
vt 0.225465 0.417012
vt 0.225465 0.417012
vt 0.225465 0.417012
vt 0.225465 0.417012
vt 0.225465 0.417012
vt 0.225465 0.417012
vt 0.016505 0.504922
vt 0.164940 0.504922
vt 0.164940 0.653356
vt 0.016505 0.653356
vt 0.225465 0.444396
vt 0.225465 0.417012
vt 0.225465 0.444396
vt 0.252849 0.444396
vt 0.225465 0.444396
vt 0.225465 0.444396
vt 0.252849 0.444396
vt 0.311916 0.800333
vt 0.311916 0.800333
vt 0.225465 0.417012
vt 0.252849 0.417012
vt 0.225465 0.417012
vt 0.225465 0.417012
vt 0.225465 0.417012
vt 0.225465 0.444396
vt 0.225465 0.417012
vt 0.225465 0.417012
vt 0.225465 0.417012
vt 0.225465 0.417012
vt 0.225465 0.417012
vt 0.225465 0.417012
vt 0.225465 0.444396
vt 0.225465 0.444396
vt 0.225465 0.444396
vt 0.225465 0.444396
vt 0.225465 0.444396
vt 0.225465 0.444396
vt 0.225465 0.417012
vt 0.225465 0.417012
vt 0.225465 0.444396
vt 0.225465 0.444396
vt 0.225465 0.417012
vt 0.313374 0.504922
vt 0.313374 0.653356
vt 0.225465 0.417012
vt 0.225465 0.417012
vt 0.225465 0.444396
vt 0.461809 0.504922
vt 0.461809 0.653356
vt 0.225465 0.444396
vt 0.225465 0.417012
vt 0.225465 0.417012
vt 0.225465 0.444396
vt 0.164940 0.801791
vt 0.313374 0.801791
vn -0.0000 0.0000 -1.0000
vn 1.0000 0.0000 0.0000
vn 0.0000 0.0000 1.0000
vn 0.0000 1.0000 0.0000
vn -1.0000 0.0000 0.0000
vn 0.0000 -1.0000 0.0000
vn -0.2502 0.9682 0.0000
vn 0.2502 0.9682 0.0000
vn 0.0000 0.1086 -0.9941
usemtl Material
s off
f 57/1/1 58/2/1 62/3/1 64/4/1
f 38/5/2 69/6/2 8/7/2 12/8/2
f 10/9/3 20/10/3 19/11/3 8/7/3
f 50/12/4 73/13/4 17/14/4 18/15/4
f 56/16/5 55/17/5 28/18/5 25/19/5
f 30/20/5 31/21/5 64/4/5 62/3/5
f 60/22/4 56/16/4 25/19/4 26/23/4
f 71/24/4 51/25/4 9/26/4 5/27/4
f 70/28/5 37/29/5 3/30/5 15/31/5
f 62/32/6 61/33/6 29/34/6 30/35/6
f 54/36/3 58/2/3 21/37/3 22/38/3
f 53/39/2 54/36/2 65/40/2 34/41/2 33/42/2
f 59/43/2 60/22/2 26/23/2 27/44/2
f 58/2/5 66/45/5 5/27/5 21/37/5
f 57/1/4 53/39/4 33/42/4 36/46/4
f 73/13/4 71/24/4 5/27/4 17/14/4
f 16/47/7 7/48/7 6/49/7 9/26/7
f 20/10/8 10/9/8 18/15/8 4/50/8
f 51/25/7 52/51/7 16/47/7 9/26/7
f 58/2/1 54/36/1 61/33/1 62/3/1
f 48/52/3 47/53/3 68/54/3 40/55/3 41/56/3 44/57/3 42/58/3 67/59/3 46/60/3 45/61/3 72/62/3 74/63/3
f 4/50/4 18/15/4 17/14/4 22/38/4
f 58/2/5 57/1/5 36/46/5 35/64/5 66/45/5
f 70/28/1 52/51/1 51/25/1 71/24/1 73/13/1 50/12/1 49/65/1 69/6/1 38/5/1 43/66/1 39/67/1 37/29/1
f 47/53/7 48/52/7 6/49/7 7/48/7
f 54/36/1 53/39/1 63/68/1 61/33/1
f 61/33/2 63/68/2 32/69/2 29/34/2
f 74/63/4 72/62/4 22/38/4 21/37/4
f 45/61/8 46/60/8 20/10/8 4/50/8
f 14/70/5 15/31/5 3/30/5 13/71/5
f 8/7/2 19/11/2 11/72/2 12/8/2
f 63/68/4 64/73/4 31/74/4 32/69/4
f 7/48/3 16/47/3 15/31/3 14/70/3
f 46/60/3 67/59/3 19/11/3 20/10/3
f 2/75/6 1/76/6 23/77/6 24/78/6
f 55/17/3 56/16/3 29/34/3 32/69/3
f 56/16/3 60/22/3 30/79/3 29/34/3
f 48/52/4 74/63/4 21/37/4 6/49/4
f 66/45/1 65/40/1 17/14/1 5/27/1
f 12/8/6 11/72/6 2/75/6 24/78/6
f 13/71/6 3/30/6 23/77/6 1/76/6
f 9/26/4 6/49/4 21/37/4 5/27/4
f 55/17/6 59/43/6 27/44/6 28/18/6
f 37/29/6 39/67/6 23/77/6 3/30/6
f 60/22/3 59/43/3 31/80/3 30/79/3
f 39/67/6 43/66/6 24/78/6 23/77/6
f 40/55/5 68/54/5 14/70/5 13/71/5
f 41/56/6 40/55/6 13/71/6 1/76/6
f 49/65/8 50/12/8 18/15/8 10/9/8
f 44/57/6 41/56/6 1/76/6 2/75/6
f 66/45/3 35/64/3 34/41/3 65/40/3
f 72/62/4 45/61/4 4/50/4 22/38/4
f 42/58/6 44/57/6 2/75/6 11/72/6
f 52/51/3 70/28/3 15/31/3 16/47/3
f 68/54/3 47/53/3 7/48/3 14/70/3
f 36/46/9 33/42/9 34/41/9 35/64/9
f 65/40/2 54/36/2 22/38/2 17/14/2
f 69/6/3 49/65/3 10/9/3 8/7/3
f 59/43/3 55/17/3 32/69/3 31/80/3
f 43/66/6 38/5/6 12/8/6 24/78/6
f 67/59/2 42/58/2 11/72/2 19/11/2
f 53/39/1 57/1/1 64/4/1 63/68/1
o Cube.001
v 2.309643 2.330203 0.015964
v -2.309643 2.330203 0.015964
v -2.309643 0.369509 0.015964
v 2.309643 0.369509 0.015964
vt 0.657986 0.658947
vt 0.903073 0.658947
vt 0.903073 0.904034
vt 0.657986 0.904034
vn 0.0000 0.0000 1.0000
usemtl Material
s off
f 78/81/10 75/82/10 76/83/10 77/84/10
