# Blender v2.92.0 OBJ File: 'Monitor1.blend'
# www.blender.org
mtllib Monitor1.mtl
o Cube
v 0.399263 0.129568 -0.399263
v 0.399263 -0.000626 -0.399263
v -0.399263 0.129568 -0.399263
v 0.399263 0.129568 0.399263
v -0.399263 0.129568 0.399263
v -0.399263 -0.000626 -0.399263
v 0.399263 -0.000626 0.399263
v -0.399263 -0.000626 0.399263
v 0.590263 -0.000626 0.590263
v 0.590263 -0.000626 -0.590263
v -0.590263 -0.000626 0.590263
v -0.590263 -0.000626 -0.590263
v 0.464161 0.315059 0.464161
v 0.464161 0.315059 -0.464161
v -0.464161 0.315059 0.464161
v -0.464161 0.315059 -0.464161
v 0.571858 0.743202 -1.000000
v -0.571858 0.743202 -1.000000
v -0.399263 0.315059 0.399263
v -0.399263 0.315059 -0.399263
v -0.571858 1.886917 -1.000000
v 0.399263 0.315059 0.399263
v 0.399263 0.315059 -0.399263
v 0.571858 1.886917 -1.000000
v 1.000000 2.315059 1.000000
v 1.000000 0.315059 1.000000
v -1.000000 2.315059 1.000000
v -1.000000 0.315059 1.000000
v 0.777195 2.092254 0.924054
v 0.777195 0.537865 0.924054
v -0.777195 2.092254 0.924054
v -0.777195 0.537865 0.924054
v 0.524181 0.129568 0.524181
v 0.590263 0.063486 0.590263
v 0.590263 0.063486 -0.590263
v 0.524181 0.129568 -0.524181
v -0.590263 0.063486 0.590263
v -0.524181 0.129568 0.524181
v -0.524181 0.129568 -0.524181
v -0.590263 0.063486 -0.590263
v 0.808618 2.123678 1.000000
v 0.777195 2.092254 0.968577
v 0.777195 0.537865 0.968577
v 0.808618 0.506441 1.000000
v -0.808618 2.123678 1.000000
v -0.777195 2.092254 0.968577
v -0.808618 0.506441 1.000000
v -0.777195 0.537865 0.968577
vt 0.090720 0.585337
vt 0.145037 0.585337
vt 0.145037 0.585337
vt 0.090720 0.585337
vt 0.145037 0.585337
vt 0.145037 0.531020
vt 0.149451 0.526606
vt 0.149451 0.589752
vt 0.090720 0.531020
vt 0.145037 0.531020
vt 0.145037 0.531020
vt 0.090720 0.531020
vt 0.086305 0.526606
vt 0.086305 0.589752
vt 0.049856 0.626200
vt 0.049856 0.490157
vt 0.090720 0.531020
vt 0.090720 0.531020
vt 0.145037 0.585337
vt 0.145037 0.585337
vt 0.145037 0.531020
vt 0.185900 0.354113
vt 0.321943 0.354113
vt 0.321943 0.490157
vt 0.185900 0.490157
vt 0.090720 0.585337
vt 0.090720 0.585337
vt 0.090720 0.585337
vt 0.090720 0.531020
vt 0.145037 0.531020
vt 0.090720 0.531020
vt 0.090720 0.585337
vt 0.145037 0.531020
vt 0.145037 0.585337
vt 0.457987 0.490157
vt 0.457987 0.626200
vt 0.321943 0.626200
vt 0.185900 0.626200
vt 0.185900 0.218070
vt 0.321943 0.218070
vt 0.306788 0.641356
vt 0.306788 0.747088
vt 0.306788 0.747088
vt 0.306788 0.641356
vt 0.201055 0.747088
vt 0.201056 0.641356
vt 0.201056 0.641356
vt 0.201055 0.747088
vt 0.198918 0.749226
vt 0.308925 0.749226
vt 0.321943 0.762244
vt 0.185900 0.762244
vt 0.308925 0.639219
vt 0.198918 0.639219
vn 0.0000 1.0000 0.0000
vn 0.0000 -1.0000 0.0000
vn 0.0000 0.0000 -1.0000
vn -0.5429 -0.8160 -0.1987
vn -1.0000 0.0000 0.0000
vn 0.0000 0.0000 1.0000
vn 0.0000 0.9778 -0.2093
vn 0.5429 -0.8160 -0.1987
vn 0.0000 -0.7812 -0.6242
vn 1.0000 0.0000 0.0000
vn 0.9778 0.0000 -0.2093
vn -0.9778 0.0000 -0.2093
vn -0.7071 0.7071 0.0000
vn 0.7071 0.7071 0.0000
vn 0.0000 0.7071 0.7071
vn 0.0000 0.7071 -0.7071
vn -0.7071 0.0000 0.7071
vn 0.0000 -0.7071 0.7071
vn 0.7071 0.0000 0.7071
usemtl Material
s off
f 38/1/1 33/2/1 4/3/1 5/4/1
f 22/5/2 23/6/2 14/7/2 13/8/2
f 40/9/3 35/10/3 10/11/3 12/12/3
f 16/13/4 15/14/4 28/15/4 18/16/4
f 39/17/1 38/1/1 5/4/1 3/18/1
f 10/11/2 9/19/2 7/20/2 2/21/2
f 18/22/3 21/23/3 24/24/3 17/25/3
f 37/26/5 40/9/5 12/12/5 11/27/5
f 22/5/6 19/28/6 5/4/6 4/3/6
f 20/29/3 23/6/3 1/30/3 3/18/3
f 6/31/2 2/21/2 7/20/2 8/32/2
f 20/29/2 19/28/2 15/14/2 16/13/2
f 33/2/1 36/33/1 1/30/1 4/3/1
f 11/27/2 12/12/2 6/31/2 8/32/2
f 9/19/2 11/27/2 8/32/2 7/20/2
f 34/34/6 37/26/6 11/27/6 9/19/6
f 24/24/7 21/35/7 27/36/7 25/37/7
f 23/6/2 20/29/2 16/13/2 14/7/2
f 15/14/2 13/8/2 26/38/2 28/15/2
f 19/28/2 22/5/2 13/8/2 15/14/2
f 36/33/1 39/17/1 3/18/1 1/30/1
f 13/8/8 14/7/8 17/25/8 26/38/8
f 14/7/9 16/13/9 18/16/9 17/25/9
f 23/6/10 22/5/10 4/3/10 1/30/10
f 17/25/11 24/24/11 25/37/11 26/38/11
f 28/39/12 27/40/12 21/23/12 18/22/12
f 19/28/5 20/29/5 3/18/5 5/4/5
f 12/12/2 10/11/2 2/21/2 6/31/2
f 42/41/2 46/42/2 31/43/2 29/44/2
f 48/45/1 43/46/1 30/47/1 32/48/1
f 46/42/10 48/45/10 32/48/10 31/43/10
f 47/49/6 45/50/6 27/51/6 28/52/6
f 41/53/6 44/54/6 26/38/6 25/37/6
f 44/54/6 47/49/6 28/52/6 26/38/6
f 45/50/6 41/53/6 25/37/6 27/51/6
f 40/9/13 37/26/13 38/1/13 39/17/13
f 34/34/14 35/10/14 36/33/14 33/2/14
f 37/26/15 34/34/15 33/2/15 38/1/15
f 35/10/16 40/9/16 39/17/16 36/33/16
f 35/10/10 34/34/10 9/19/10 10/11/10
f 42/41/17 43/46/17 44/54/17 41/53/17
f 41/53/18 45/50/18 46/42/18 42/41/18
f 48/45/19 46/42/19 45/50/19 47/49/19
f 47/49/15 44/54/15 43/46/15 48/45/15
f 43/46/5 42/41/5 29/44/5 30/47/5
o Cube.001
v 0.777195 2.092254 0.924054
v 0.777195 0.537865 0.924054
v -0.777195 2.092254 0.924054
v -0.777195 0.537865 0.924054
vt 0.644007 0.704027
vt 0.838306 0.704027
vt 0.838306 0.898326
vt 0.644007 0.898326
vn 0.0000 0.0000 1.0000
usemtl Material
s off
f 50/55/20 49/56/20 51/57/20 52/58/20
