# Blender v2.92.0 OBJ File: ''
# www.blender.org
mtllib Chair.mtl
o Chair_Cube.003
v 0.454956 -1.000040 0.937551
v 0.454956 -1.000040 -0.511692
v 2.220634 -1.000040 0.937551
v 2.220634 -1.000040 -0.511692
v 2.220634 -1.000040 0.789849
v 2.220634 0.514013 0.789849
v 0.454956 0.514013 0.789850
v 2.220634 0.514013 -0.364894
v 0.454956 0.514013 -0.364894
v 2.220634 -1.000040 -0.364894
v 0.454956 -1.000040 0.789850
v 0.454956 -1.000040 -0.364894
v 2.082204 -1.000040 0.937551
v 2.082204 -1.000040 -0.511692
v 2.082204 -1.000040 -0.364894
v 2.082204 -1.000040 0.789849
v 0.603605 -1.000040 0.937551
v 0.603605 -1.000040 -0.511692
v 0.603605 -1.000040 -0.364894
v 0.603605 -1.000040 0.789850
v 0.603605 0.517409 0.937551
v 0.603605 0.517410 -0.511692
v 0.603605 0.514013 -0.364894
v 0.603605 0.514013 0.789850
v 2.082204 0.517410 -0.511692
v 2.082204 0.517409 0.937551
v 2.082204 0.514013 -0.364894
v 2.082204 0.514013 0.789849
v 2.220634 0.344297 0.789849
v 2.220634 0.344297 -0.364894
v 0.454956 0.344297 0.789850
v 0.454956 0.344297 -0.364894
v 0.603605 0.344297 -0.364894
v 0.603605 0.344297 0.789850
v 2.082204 0.344297 -0.364894
v 2.082204 0.344297 0.789849
v 0.487417 0.810848 0.905275
v 0.454956 0.778571 0.937551
v 0.487417 0.810848 -0.479416
v 0.454956 0.778571 -0.511692
v 2.188173 0.810848 0.905275
v 2.220634 0.778571 0.937551
v 2.188173 0.810848 -0.479416
v 2.220634 0.778571 -0.511692
v 1.997121 0.810848 0.905275
v 2.001488 0.810848 -0.479416
v 2.000681 2.608855 -0.223453
v 2.022157 2.630181 -0.232287
v 2.001488 2.352892 -0.479416
v 2.022936 2.383051 -0.479416
v 2.166725 2.383051 -0.479416
v 2.188173 2.352892 -0.479416
v 2.188173 2.608855 -0.223453
v 2.166725 2.630181 -0.232287
v 2.188173 2.608855 0.649312
v 2.166725 2.630181 0.658145
v 2.188173 2.352892 0.905275
v 2.166725 2.383051 0.905275
v 2.018569 2.383051 0.905275
v 1.997121 2.352892 0.905275
v 1.997928 2.608855 0.649312
v 2.019348 2.630181 0.658145
vt 0.888851 0.670089
vt 0.922172 0.670089
vt 0.922172 0.704169
vt 0.888851 0.704169
vt 0.888851 0.700696
vt 0.915951 0.700696
vt 0.915951 0.673541
vt 0.888851 0.673541
vt 0.888851 0.601930
vt 0.922172 0.601930
vt 0.922172 0.636010
vt 0.888851 0.636010
vt 0.888851 0.632558
vt 0.915951 0.632558
vt 0.915951 0.605403
vt 0.888851 0.605403
vt 0.854771 0.670089
vt 0.858247 0.670089
vt 0.858247 0.673541
vt 0.854771 0.673541
vt 0.888851 0.666853
vt 0.916031 0.666853
vt 0.916031 0.639485
vt 0.888851 0.639485
vt 0.837732 0.601930
vt 0.837732 0.601930
vt 0.837732 0.601930
vt 0.837732 0.601930
vt 0.837732 0.601930
vt 0.837732 0.601930
vt 0.837732 0.601930
vt 0.837732 0.601930
vt 0.915951 0.700696
vt 0.915951 0.673541
vt 0.854771 0.700696
vt 0.858247 0.700696
vt 0.858247 0.704169
vt 0.854771 0.704169
vt 0.837732 0.601930
vt 0.837732 0.601930
vt 0.837732 0.601930
vt 0.837732 0.601930
vt 0.885615 0.704169
vt 0.885615 0.700696
vt 0.837732 0.601930
vt 0.837732 0.601930
vt 0.837732 0.601930
vt 0.837732 0.601930
vt 0.837732 0.601930
vt 0.837732 0.601930
vt 0.837732 0.601930
vt 0.837732 0.601930
vt 0.837732 0.601930
vt 0.837732 0.601930
vt 0.885615 0.673541
vt 0.885615 0.670089
vt 0.837732 0.601930
vt 0.837732 0.601930
vt 0.837732 0.601930
vt 0.837732 0.601930
vt 0.837732 0.601930
vt 0.837732 0.601930
vt 0.837732 0.601930
vt 0.837732 0.601930
vt 0.837732 0.601930
vt 0.837732 0.601930
vt 0.915951 0.632558
vt 0.915951 0.605403
vt 0.956252 0.703410
vt 0.956252 0.670848
vt 0.957011 0.670089
vt 0.957011 0.704169
vt 0.928055 0.670848
vt 0.923690 0.670848
vt 0.922931 0.670089
vt 0.923690 0.703410
vt 0.928157 0.703410
vt 0.922931 0.704169
vt 0.922172 0.738249
vt 0.888851 0.738249
vt 0.888851 0.734773
vt 0.916031 0.734773
vt 0.916031 0.707406
vt 0.888851 0.707406
vt 0.928055 0.670848
vt 0.927553 0.670848
vt 0.924191 0.670848
vt 0.923690 0.670848
vt 0.924191 0.697599
vt 0.927637 0.697599
vt 0.927656 0.703410
vt 0.924191 0.703410
vt 0.928157 0.703410
vt 0.928138 0.697391
vt 0.928074 0.676867
vt 0.924191 0.676660
vt 0.927572 0.676660
vt 0.923690 0.703410
vt 0.923690 0.676867
vt 0.923690 0.697391
vn 1.0000 0.0000 0.0000
vn -1.0000 0.0000 -0.0000
vn 0.0000 -1.0000 0.0000
vn 0.0000 0.0000 -1.0000
vn 0.0000 0.0000 1.0000
vn -0.7051 0.7091 0.0000
vn 0.0000 0.7071 -0.7071
vn 0.7051 0.7091 0.0000
vn 0.0000 0.7071 0.7071
vn 0.0000 1.0000 0.0000
vn -1.0000 0.0000 -0.0032
vn -0.7043 0.5009 -0.5031
vn 0.7051 0.5014 -0.5014
vn 0.7051 0.5014 0.5014
vn -0.7059 0.5020 0.4998
vn -0.7051 0.7091 -0.0022
usemtl Material.001
s 1
f 4/1/1 44/2/1 42/3/1 3/4/1 5/5/1 6/6/1 8/7/1 10/8/1
f 1/9/2 38/10/2 40/11/2 2/12/2 12/13/2 9/14/2 7/15/2 11/16/2
f 2/17/3 18/18/3 19/19/3 12/20/3
f 2/12/4 40/11/4 44/2/4 4/1/4 14/21/4 25/22/4 22/23/4 18/24/4
f 8/25/5 27/26/5 15/27/5 10/28/5
f 7/29/4 24/30/4 20/31/4 11/32/4
f 8/7/1 6/6/1 29/33/1 30/34/1
f 11/35/3 20/36/3 17/37/3 1/38/3
f 19/39/5 23/40/5 9/41/5 12/42/5
f 13/43/3 16/44/3 5/5/3 3/4/3
f 26/45/2 25/46/2 14/47/2 15/27/2 27/26/2 28/48/2 16/49/2 13/50/2
f 27/26/4 8/25/4 30/51/4 35/52/4
f 21/53/3 22/54/3 25/46/3 26/45/3
f 15/55/3 14/56/3 4/1/3 10/8/3
f 22/54/1 21/53/1 17/57/1 20/31/1 24/30/1 23/40/1 19/39/1 18/58/1
f 16/49/4 28/48/4 6/59/4 5/60/4
f 29/61/3 36/62/3 35/52/3 30/51/3
f 33/63/3 34/64/3 31/65/3 32/66/3
f 9/41/4 23/40/4 33/63/4 32/66/4
f 28/48/2 27/26/2 35/52/2 36/62/2
f 7/15/2 9/14/2 32/67/2 31/68/2
f 6/59/5 28/48/5 36/62/5 29/61/5
f 23/40/1 24/30/1 34/64/1 33/63/1
f 24/30/5 7/29/5 31/65/5 34/64/5
f 37/69/6 39/70/6 40/71/6 38/72/6
f 39/70/7 46/73/7 43/74/7 44/75/7 40/71/7
f 43/74/8 41/76/8 42/3/8 44/2/8
f 41/76/9 45/77/9 37/69/9 38/72/9 42/78/9
f 3/4/5 42/3/5 38/79/5 1/80/5 17/81/5 21/82/5 26/83/5 13/84/5
f 45/77/10 46/73/10 39/70/10 37/69/10
f 43/74/4 46/73/4 49/85/4 50/86/4 51/87/4 52/88/4
f 56/89/9 62/90/9 59/91/9 58/92/9
f 46/73/11 45/77/11 60/93/11 61/94/11 47/95/11 49/85/11
f 54/96/10 48/97/10 62/90/10 56/89/10
f 45/77/5 41/76/5 57/98/5 58/92/5 59/91/5 60/93/5
f 41/76/1 43/74/1 52/88/1 53/99/1 55/100/1 57/98/1
f 49/85/12 47/95/12 48/97/12 50/86/12
f 53/99/13 52/88/13 51/87/13 54/96/13
f 57/98/14 55/100/14 56/89/14 58/92/14
f 61/94/15 60/93/15 59/91/15 62/90/15
f 55/100/8 53/99/8 54/96/8 56/89/8
f 47/95/16 61/94/16 62/90/16 48/97/16
f 48/97/7 54/96/7 51/87/7 50/86/7
