# Blender v2.92.0 OBJ File: ''
# www.blender.org
mtllib Lamp ebat.mtl
o Cube_Cube.001
v 0.661060 -1.346007 0.661060
v -0.661060 -1.346007 0.661060
v -0.875629 -1.346007 0.875629
v 0.875629 -1.346007 0.875629
v -0.661060 -1.346007 -0.661060
v 0.661060 -1.346007 -0.661060
v 0.875629 -1.346007 -0.875629
v -0.875629 -1.346007 -0.875629
v -1.000000 -1.545063 1.000000
v -1.000000 -1.470378 1.000000
v -1.000000 -1.470378 -1.000000
v -1.000000 -1.545063 -1.000000
v 1.000000 -1.545063 -1.000000
v 1.000000 -1.545063 1.000000
v 1.000000 -1.663061 1.000000
v 1.000000 -1.663061 -1.000000
v -0.661060 -1.294931 -0.661060
v 0.661060 -1.294931 -0.661060
v 1.000000 -1.470378 -1.000000
v 1.000000 -1.470378 1.000000
v 0.661060 -1.294931 0.661060
v -0.661060 -1.294931 0.661060
v -0.576407 -1.210277 0.576407
v -0.576407 -1.210277 -0.576407
v 0.576407 -1.210277 -0.576407
v 0.576407 -1.210277 0.576407
v -0.279844 -1.016296 -0.279844
v -0.279844 -1.016296 0.279844
v -0.200350 -0.840828 0.200350
v -0.200350 -0.840828 -0.200350
v -0.279844 -1.210277 0.279844
v -0.279844 -1.210277 -0.279844
v 0.279844 -1.210277 -0.279844
v 0.279844 -1.210277 0.279844
v -0.860881 0.649119 0.860881
v 0.860881 0.649119 0.860881
v 1.148847 1.989088 1.148847
v -1.148847 1.989088 1.148847
v 0.279844 -1.016296 0.279844
v 0.279844 -1.016296 -0.279844
v 0.200350 -0.840828 -0.200350
v 0.200350 -0.840828 0.200350
v -0.279844 0.219116 0.279844
v -0.279844 0.219116 -0.279844
v -0.200350 0.043648 -0.200350
v -0.200350 0.043648 0.200350
v 0.279844 0.219116 -0.279844
v 0.279844 0.219116 0.279844
v 0.200350 0.043648 0.200350
v 0.200350 0.043648 -0.200350
v -0.279844 0.413097 -0.279844
v -0.279844 0.413097 0.279844
v -0.910898 0.299292 0.910898
v -0.910898 0.299292 -0.910898
v -0.860881 0.649119 -0.860881
v -1.148847 1.989088 -1.148847
v 0.279844 0.413097 0.279844
v 0.279844 0.413097 -0.279844
v 0.910898 0.299292 -0.910898
v 0.910898 0.299292 0.910898
v -0.689705 0.636262 0.689705
v 0.689705 0.636262 0.689705
v 0.860881 0.519797 -0.860881
v -0.860881 0.519797 -0.860881
v -0.689705 0.532654 -0.689705
v 0.689705 0.532654 -0.689705
v -0.689705 0.636262 -0.689705
v 0.860881 0.649119 -0.860881
v 1.148847 1.989088 -1.148847
v 0.689705 0.636262 -0.689705
v 0.907059 2.230875 -0.907059
v 0.907059 2.230875 0.907059
v -0.907059 2.230875 0.907059
v -0.907059 2.230875 -0.907059
v -0.860881 0.519797 0.860881
v 0.860881 0.519797 0.860881
v -0.576485 2.230875 0.576485
v 0.576485 2.230875 0.576485
v 0.576485 2.407047 0.576485
v -0.576485 2.407047 0.576485
v 0.576485 2.230875 -0.576485
v -0.576485 2.230875 -0.576485
v -0.576485 2.407047 -0.576485
v 0.576485 2.407047 -0.576485
v -0.452083 2.531449 0.452083
v 0.452083 2.531449 0.452083
v 0.452083 2.531449 -0.452083
v -0.452083 2.531449 -0.452083
v -0.689705 0.532654 0.689705
v 0.689705 0.532654 0.689705
v -1.000000 -1.663061 -1.000000
v -1.000000 -1.663061 1.000000
v -0.903861 -1.759201 -0.903861
v 0.903861 -1.759201 -0.903861
v 0.903861 -1.759201 0.903861
v -0.903861 -1.759201 0.903861
vt 0.706430 0.546475
vt 0.706470 0.546388
vt 0.706977 0.545848
vt 0.706936 0.546039
vt 0.706594 0.546371
vt 0.706523 0.546472
vt 0.707132 0.546013
vt 0.707238 0.545761
vt 0.707287 0.545136
vt 0.707161 0.545496
vt 0.707793 0.545257
vt 0.708365 0.544741
vt 0.707874 0.545775
vt 0.707213 0.545790
vt 0.707339 0.545669
vt 0.708231 0.545669
vt 0.706191 0.546731
vt 0.706139 0.546788
vt 0.707504 0.545864
vt 0.707097 0.545895
vt 0.706089 0.546783
vt 0.706124 0.546733
vt 0.705766 0.547078
vt 0.705792 0.547083
vt 0.705765 0.547107
vt 0.705744 0.547100
vt 0.704746 0.548088
vt 0.704773 0.548018
vt 0.704694 0.548642
vt 0.704088 0.549083
vt 0.705223 0.547590
vt 0.705221 0.547622
vt 0.705179 0.547616
vt 0.705179 0.547585
vt 0.704687 0.547989
vt 0.704668 0.548057
vt 0.703623 0.548475
vt 0.704203 0.547997
vt 0.700497 0.552393
vt 0.700445 0.546815
vt 0.702311 0.547819
vt 0.702415 0.550412
vt 0.705792 0.546516
vt 0.706143 0.551841
vt 0.705032 0.550150
vt 0.704841 0.547630
vt 0.697241 0.544486
vt 0.697196 0.555907
vt 0.687818 0.565084
vt 0.689140 0.536546
vt 0.708746 0.554710
vt 0.707994 0.543997
vt 0.715411 0.536400
vt 0.716936 0.562761
vt 0.738054 0.586080
vt 0.657607 0.590562
vt 0.666747 0.583195
vt 0.731936 0.579099
vt 0.721117 0.531225
vt 0.683733 0.530268
vt 0.678341 0.523090
vt 0.727528 0.525946
vt 0.670279 0.510993
vt 0.675461 0.518977
vt 0.738054 0.517949
vt 0.731145 0.523144
vt 0.668685 0.941834
vt 0.729303 0.942396
vt 0.741779 0.954126
vt 0.656937 0.954335
vt 0.730031 0.881749
vt 0.741779 0.869248
vt 0.669413 0.881187
vt 0.656937 0.869457
vt 0.680345 0.571818
vt 0.722685 0.568764
vt 0.719142 0.891776
vt 0.719279 0.931491
vt 0.713382 0.926826
vt 0.714473 0.897682
vt 0.679574 0.931807
vt 0.679438 0.892092
vt 0.685334 0.896757
vt 0.684243 0.925901
vt 0.709741 0.902171
vt 0.708899 0.922087
vt 0.688975 0.921412
vt 0.689817 0.901496
vt 0.671965 0.578891
vt 0.728686 0.575377
vt 0.708939 0.544235
vt 0.707437 0.544780
vt 0.709518 0.543706
vt 0.708597 0.545550
vt 0.707476 0.545549
vt 0.707589 0.544433
vn 0.0000 1.0000 0.0000
vn -1.0000 0.0000 0.0000
vn 1.0000 0.0000 0.0000
vn 0.0000 0.0000 -1.0000
vn 0.0000 0.0000 1.0000
vn -0.7071 0.7071 0.0000
vn 0.0000 0.7071 -0.7071
vn 0.7071 0.7071 0.0000
vn 0.0000 0.7071 0.7071
vn -0.9109 0.4127 0.0000
vn 0.9109 0.4127 0.0000
vn -0.9109 -0.4127 -0.0000
vn 0.9109 -0.4127 -0.0000
vn 0.1775 -0.9841 -0.0000
vn -0.1775 -0.9841 -0.0000
vn 0.0000 -0.9841 -0.1775
vn 0.0000 -0.9972 0.0749
vn 0.0000 0.9972 -0.0749
vn -0.0749 -0.9972 -0.0000
vn 0.0000 -0.9841 0.1775
vn 0.0749 -0.9972 -0.0000
vn -0.9752 0.2212 0.0000
vn 0.0000 0.2212 -0.9752
vn 0.9752 0.2212 0.0000
vn 0.0000 0.2212 0.9752
vn 0.0749 0.9972 0.0000
vn 0.0000 -0.9972 -0.0749
vn -0.0749 0.9972 0.0000
vn 0.0000 0.9972 0.0749
vn 0.0000 -0.4127 0.9109
vn 0.0000 -0.4127 -0.9109
vn 0.0000 0.4127 0.9109
vn 0.0000 0.4127 -0.9109
vn 0.0000 -1.0000 -0.0000
vn -0.7071 -0.7071 -0.0000
vn 0.0000 -0.7071 -0.7071
vn 0.7071 -0.7071 -0.0000
vn 0.0000 -0.7071 0.7071
usemtl Material.001
s 1
f 1/1/1 2/2/1 3/3/1 4/4/1
f 5/5/1 6/6/1 7/7/1 8/8/1
f 6/6/1 1/1/1 4/4/1 7/7/1
f 9/9/2 10/10/2 11/11/2 12/12/2
f 13/13/3 14/14/3 15/15/3 16/16/3
f 6/6/4 5/5/4 17/17/4 18/18/4
f 12/12/4 11/11/4 19/19/4 13/13/4
f 13/13/3 19/19/3 20/20/3 14/14/3
f 2/2/1 5/5/1 8/8/1 3/3/1
f 2/2/5 1/1/5 21/21/5 22/22/5
f 5/5/2 2/2/2 22/22/2 17/17/2
f 1/1/3 6/6/3 18/18/3 21/21/3
f 23/23/6 24/24/6 17/17/6 22/22/6
f 24/24/7 25/25/7 18/18/7 17/17/7
f 25/25/8 26/26/8 21/21/8 18/18/8
f 26/26/9 23/23/9 22/22/9 21/21/9
f 27/27/10 28/28/10 29/29/10 30/30/10
f 3/3/6 8/8/6 11/11/6 10/10/6
f 8/8/7 7/7/7 19/19/7 11/11/7
f 7/7/8 4/4/8 20/20/8 19/19/8
f 4/4/9 3/3/9 10/10/9 20/20/9
f 14/14/5 20/20/5 10/10/5 9/9/5
f 31/31/1 32/32/1 24/24/1 23/23/1
f 32/32/1 33/33/1 25/25/1 24/24/1
f 33/33/1 34/34/1 26/26/1 25/25/1
f 34/34/1 31/31/1 23/23/1 26/26/1
f 39/35/11 40/36/11 41/37/11 42/38/11
f 43/39/12 44/40/12 45/41/12 46/42/12
f 47/43/13 48/44/13 49/45/13 50/46/13
f 51/47/14 52/48/14 53/49/14 54/50/14
f 57/51/15 58/52/15 59/53/15 60/54/15
f 52/48/16 57/51/16 60/54/16 53/49/16
f 36/55/17 35/56/17 61/57/17 62/58/17
f 63/59/18 64/60/18 65/61/18 66/62/18
f 35/56/19 55/63/19 67/64/19 61/57/19
f 58/52/20 51/47/20 54/50/20 59/53/20
f 68/65/21 36/55/21 62/58/21 70/66/21
f 71/67/8 72/68/8 37/69/8 69/70/8
f 72/68/9 73/71/9 38/72/9 37/69/9
f 74/73/7 71/67/7 69/70/7 56/74/7
f 73/71/6 74/73/6 56/74/6 38/72/6
f 75/75/22 64/60/22 54/50/22 53/49/22
f 64/60/23 63/59/23 59/53/23 54/50/23
f 63/59/24 76/76/24 60/54/24 59/53/24
f 76/76/25 75/75/25 53/49/25 60/54/25
f 77/77/5 78/78/5 79/79/5 80/80/5
f 81/81/1 78/78/1 72/68/1 71/67/1
f 78/78/1 77/77/1 73/71/1 72/68/1
f 82/82/1 81/81/1 71/67/1 74/73/1
f 77/77/1 82/82/1 74/73/1 73/71/1
f 81/81/4 82/82/4 83/83/4 84/84/4
f 85/85/1 86/86/1 87/87/1 88/88/1
f 82/82/2 77/77/2 80/80/2 83/83/2
f 87/87/8 86/86/8 79/79/8 84/84/8
f 86/86/9 85/85/9 80/80/9 79/79/9
f 88/88/7 87/87/7 84/84/7 83/83/7
f 85/85/6 88/88/6 83/83/6 80/80/6
f 78/78/3 81/81/3 84/84/3 79/79/3
f 65/61/2 89/89/2 61/57/2 67/64/2
f 90/90/3 66/62/3 70/66/3 62/58/3
f 89/89/5 90/90/5 62/58/5 61/57/5
f 66/62/4 65/61/4 67/64/4 70/66/4
f 76/76/26 63/59/26 66/62/26 90/90/26
f 55/63/27 68/65/27 70/66/27 67/64/27
f 64/60/28 75/75/28 89/89/28 65/61/28
f 75/75/29 76/76/29 90/90/29 89/89/29
f 28/28/2 27/27/2 32/32/2 31/31/2
f 27/27/4 40/36/4 33/33/4 32/32/4
f 40/36/3 39/35/3 34/34/3 33/33/3
f 39/35/5 28/28/5 31/31/5 34/34/5
f 44/40/2 43/39/2 52/48/2 51/47/2
f 47/43/4 44/40/4 51/47/4 58/52/4
f 48/44/3 47/43/3 58/52/3 57/51/3
f 43/39/5 48/44/5 57/51/5 52/48/5
f 29/29/5 42/38/5 49/45/5 46/42/5
f 41/37/4 30/30/4 45/41/4 50/46/4
f 42/38/3 41/37/3 50/46/3 49/45/3
f 30/30/2 29/29/2 46/42/2 45/41/2
f 48/44/30 43/39/30 46/42/30 49/45/30
f 44/40/31 47/43/31 50/46/31 45/41/31
f 28/28/32 39/35/32 42/38/32 29/29/32
f 40/36/33 27/27/33 30/30/33 41/37/33
f 12/12/4 13/13/4 16/16/4 91/91/4
f 14/14/5 9/9/5 92/92/5 15/15/5
f 93/93/34 94/94/34 95/95/34 96/96/34
f 93/93/35 96/96/35 92/92/35 91/91/35
f 94/94/36 93/93/36 91/91/36 16/16/36
f 95/95/37 94/94/37 16/16/37 15/15/37
f 96/96/38 95/95/38 15/15/38 92/92/38
f 9/9/2 12/12/2 91/91/2 92/92/2
o Cube_Cube.001_Plate.001
v -0.910898 0.299292 0.910898
v 0.910898 0.299292 0.910898
v -0.860881 0.519797 0.860881
v 0.860881 0.519797 0.860881
v -0.910898 0.299292 0.910898
v 0.910898 0.299292 0.910898
v -0.860881 0.519797 0.860881
v 0.860881 0.519797 0.860881
vt 0.715020 0.659981
vt 0.784980 0.659980
vt 0.784980 0.659980
vt 0.715020 0.659981
vt 0.715020 0.659981
vt 0.715020 0.659981
vt 0.784980 0.659980
vt 0.784980 0.659980
vn 0.0000 0.2212 0.9752
vn 0.0000 -0.2212 -0.9752
vn 0.0000 0.0000 1.0000
usemtl Material.001
s 1
f 100/97/39 99/98/39 97/99/39 98/100/39
f 104/101/40 102/102/40 101/103/40 103/104/40
f 97/99/41 99/98/41 103/104/41 101/103/41
f 100/97/41 98/100/41 102/102/41 104/101/41
f 98/100/41 97/99/41 101/103/41 102/102/41
f 99/98/41 100/97/41 104/101/41 103/104/41
o Cube_Cube.001_Plate.002
v -0.939255 0.312156 0.939255
v -0.939255 0.312156 -0.939255
v 0.939255 0.312156 -0.939255
v 0.939255 0.312156 0.939255
v 0.889238 0.532661 -0.889238
v -0.889238 0.532661 -0.889238
v -0.889238 0.532661 0.889238
v 0.889238 0.532661 0.889238
v -0.910898 0.299292 0.910898
v -0.910898 0.299292 -0.910898
v 0.910898 0.299292 -0.910898
v 0.910898 0.299292 0.910898
v 0.860881 0.519797 -0.860881
v -0.860881 0.519797 -0.860881
v -0.860881 0.519797 0.860881
v 0.860881 0.519797 0.860881
vt 0.277859 0.806507
vt 0.276482 0.869265
vt 0.267106 0.879342
vt 0.267106 0.796638
vt 0.338877 0.874799
vt 0.349631 0.884668
vt 0.340254 0.812041
vt 0.349631 0.801963
vt 0.277859 0.806507
vt 0.267106 0.796638
vt 0.267106 0.879342
vt 0.276482 0.869265
vt 0.349631 0.884668
vt 0.338877 0.874799
vt 0.349631 0.801963
vt 0.340254 0.812041
vn -0.9752 0.2212 0.0000
vn 0.0000 0.2212 -0.9752
vn 0.9752 0.2212 0.0000
vn 0.0000 0.2212 0.9752
vn 0.9752 -0.2212 -0.0000
vn 0.0000 -0.2212 0.9752
vn -0.9752 -0.2212 -0.0000
vn 0.0000 -0.2212 -0.9752
vn -0.2160 0.9522 0.2160
vn 0.2160 0.9522 0.2160
vn -0.2160 0.9522 -0.2160
vn -0.2160 -0.9522 0.2160
vn -0.2160 -0.9522 -0.2160
vn 0.2160 -0.9522 0.2160
vn 0.2160 -0.9522 -0.2160
vn 0.2160 0.9522 -0.2160
usemtl Material.001
s 1
f 111/105/42 110/106/42 106/107/42 105/108/42
f 110/106/43 109/109/43 107/110/43 106/107/43
f 109/109/44 112/111/44 108/112/44 107/110/44
f 112/111/45 111/105/45 105/108/45 108/112/45
f 119/113/46 113/114/46 114/115/46 118/116/46
f 118/116/47 114/115/47 115/117/47 117/118/47
f 117/118/48 115/117/48 116/119/48 120/120/48
f 120/120/49 116/119/49 113/114/49 119/113/49
f 109/109/50 110/106/51 118/116/51 117/118/50
f 112/111/52 109/109/50 117/118/50 120/120/52
f 105/108/53 106/107/54 114/115/54 113/114/53
f 108/112/55 105/108/53 113/114/53 116/119/55
f 107/110/56 108/112/55 116/119/55 115/117/56
f 110/106/51 111/105/57 119/113/57 118/116/51
f 111/105/57 112/111/52 120/120/52 119/113/57
f 106/107/54 107/110/56 115/117/56 114/115/54
o Cube_Cube.001_Plate
v -0.884916 -1.327434 0.884915
v 0.884916 -1.327434 0.884915
v 0.884916 -1.327434 -0.884916
v -0.884916 -1.327434 -0.884916
v -1.009287 -1.451805 1.009286
v -1.009287 -1.451805 -1.009287
v 1.009287 -1.451805 -1.009287
v 1.009287 -1.451805 1.009286
v -0.875629 -1.346007 0.875629
v 0.875629 -1.346007 0.875629
v 0.875629 -1.346007 -0.875629
v -0.875629 -1.346007 -0.875629
v -1.000000 -1.470378 1.000000
v -1.000000 -1.470378 -1.000000
v 1.000000 -1.470378 -1.000000
v 1.000000 -1.470378 1.000000
vt 0.262666 0.444162
vt 0.327899 0.443580
vt 0.334923 0.450211
vt 0.255968 0.451275
vt 0.328225 0.378358
vt 0.334923 0.371245
vt 0.262992 0.378940
vt 0.255968 0.372309
vt 0.262666 0.444162
vt 0.255968 0.451275
vt 0.334923 0.450211
vt 0.327899 0.443580
vt 0.334923 0.371245
vt 0.328225 0.378358
vt 0.255968 0.372309
vt 0.262992 0.378940
vn -0.7071 0.7071 0.0000
vn 0.0000 0.7071 -0.7071
vn 0.7071 0.7071 0.0000
vn 0.0000 0.7071 0.7071
vn 0.7071 -0.7071 -0.0000
vn 0.0000 -0.7071 0.7071
vn -0.7071 -0.7071 -0.0000
vn 0.0000 -0.7071 -0.7071
vn -0.5774 -0.5773 -0.5774
vn 0.5774 -0.5773 -0.5774
vn 0.5774 -0.5773 0.5774
vn 0.5773 0.5774 -0.5773
vn -0.5773 0.5774 -0.5773
vn 0.5773 0.5774 0.5773
vn -0.5773 0.5774 0.5773
vn -0.5774 -0.5773 0.5774
usemtl Material.001
s 1
f 121/121/58 124/122/58 126/123/58 125/124/58
f 124/122/59 123/125/59 127/126/59 126/123/59
f 123/125/60 122/127/60 128/128/60 127/126/60
f 122/127/61 121/121/61 125/124/61 128/128/61
f 129/129/62 133/130/62 134/131/62 132/132/62
f 132/132/63 134/131/63 135/133/63 131/134/63
f 131/134/64 135/133/64 136/135/64 130/136/64
f 130/136/65 136/135/65 133/130/65 129/129/65
f 126/123/66 127/126/67 135/133/67 134/131/66
f 127/126/67 128/128/68 136/135/68 135/133/67
f 121/121/69 122/127/70 130/136/70 129/129/69
f 124/122/71 121/121/69 129/129/69 132/132/71
f 123/125/72 124/122/71 132/132/71 131/134/72
f 125/124/73 126/123/66 134/131/66 133/130/73
f 122/127/70 123/125/72 131/134/72 130/136/70
f 128/128/68 125/124/73 133/130/73 136/135/68
o Cube_Cube.002
v -0.860881 0.649119 0.860881
v 0.860881 0.649119 0.860881
v 1.148847 1.989088 1.148847
v -1.148847 1.989088 1.148847
v -0.860881 0.649119 -0.860881
v -1.148847 1.989088 -1.148847
v 0.860881 0.649119 -0.860881
v 1.148847 1.989088 -1.148847
vt 0.903404 0.634728
vt 0.924607 0.638153
vt 0.954650 0.663381
vt 0.878305 0.665606
vt 0.908348 0.613831
vt 0.878306 0.588604
vt 0.929550 0.617256
vt 0.954650 0.586378
vn 0.0000 -0.2101 0.9777
vn -0.9777 -0.2101 -0.0000
vn 0.0000 -0.2101 -0.9777
vn 0.9777 -0.2101 -0.0000
usemtl Material.001
s 1
f 137/137/74 138/138/74 139/139/74 140/140/74
f 141/141/75 137/137/75 140/140/75 142/142/75
f 143/143/76 141/141/76 142/142/76 144/144/76
f 138/138/77 143/143/77 144/144/77 139/139/77
