# Blender v2.92.0 OBJ File: 'Lamp 2.blend'
# www.blender.org
mtllib Lamp 2.mtl
o Cube.001
v 0.692649 -0.644546 0.692649
v 0.692649 -0.644546 -0.692649
v 0.362621 -0.020603 -0.362621
v 0.362621 -0.020603 0.362621
v 0.814038 -0.644546 0.814038
v 0.814038 -0.644546 -0.814038
v -0.692649 -0.644546 0.692649
v -0.692649 -0.644546 -0.692649
v -0.814038 -0.644546 -0.814038
v -0.814038 -0.644546 0.814038
v -1.000000 -1.000000 -1.000000
v 1.000000 -1.000000 -1.000000
v 1.000000 -1.000000 1.000000
v -1.000000 -1.000000 1.000000
v 1.000000 -0.830507 1.000000
v -1.000000 -0.830507 1.000000
v -1.000000 -0.830507 -1.000000
v 1.000000 -0.830507 -1.000000
v 0.246373 -0.020603 -0.246373
v -0.246373 -0.020603 -0.246373
v -0.362621 -0.020603 0.362621
v -0.362621 -0.020603 -0.362621
v 0.246373 -0.020603 0.246373
v -0.246373 -0.020603 0.246373
vt 0.750150 0.557361
vt 0.750150 0.530876
vt 0.750150 0.530876
vt 0.750150 0.557361
vt 0.747829 0.559682
vt 0.747829 0.528555
vt 0.776635 0.557361
vt 0.776635 0.530876
vt 0.778956 0.528555
vt 0.778956 0.559682
vt 0.667799 0.525000
vt 0.706036 0.525000
vt 0.706036 0.563238
vt 0.667799 0.563238
vt 0.724269 0.563238
vt 0.724269 0.601475
vt 0.706036 0.601475
vt 0.706036 0.448525
vt 0.724269 0.448525
vt 0.724269 0.486762
vt 0.706036 0.486762
vt 0.724269 0.525000
vt 0.776635 0.557361
vt 0.776635 0.530876
vt 0.754395 0.553116
vt 0.772390 0.553116
vt 0.754395 0.535121
vt 0.772390 0.535121
vt 0.744274 0.566793
vt 0.744274 0.597920
vt 0.744274 0.452080
vt 0.744274 0.483207
vt 0.744274 0.490318
vt 0.744274 0.521445
vn 0.8840 0.4676 0.0000
vn 0.0000 1.0000 0.0000
vn 0.0000 -1.0000 -0.0000
vn 0.0000 -0.0000 1.0000
vn -1.0000 0.0000 0.0000
vn 0.0000 0.0000 -1.0000
vn -0.8840 0.4676 0.0000
vn 0.0000 0.4676 0.8840
vn 0.0000 0.4676 -0.8840
vn 0.0000 0.7071 0.7071
vn 0.7071 0.7071 0.0000
vn -0.7071 0.7071 0.0000
vn 0.0000 0.7071 -0.7071
vn 1.0000 0.0000 0.0000
usemtl Material.001
s 1
f 1/1/1 2/2/1 3/3/1 4/4/1
f 2/2/2 1/1/2 5/5/2 6/6/2
f 7/7/2 8/8/2 9/9/2 10/10/2
f 11/11/3 12/12/3 13/13/3 14/14/3
f 13/13/4 15/15/4 16/16/4 14/17/4
f 8/8/2 2/2/2 6/6/2 9/9/2
f 14/18/5 16/19/5 17/20/5 11/21/5
f 1/1/2 7/7/2 10/10/2 5/5/2
f 11/21/6 17/20/6 18/22/6 12/12/6
f 8/8/7 7/7/7 21/23/7 22/24/7
f 7/7/8 1/1/8 4/4/8 21/23/8
f 2/2/9 8/8/9 22/24/9 3/3/9
f 23/25/2 24/26/2 21/23/2 4/4/2
f 19/27/2 23/25/2 4/4/2 3/3/2
f 24/26/2 20/28/2 22/24/2 21/23/2
f 20/28/2 19/27/2 3/3/2 22/24/2
f 5/29/10 10/30/10 16/16/10 15/15/10
f 6/6/11 5/5/11 15/15/11 18/22/11
f 10/31/12 9/32/12 17/20/12 16/19/12
f 9/33/13 6/34/13 18/22/13 17/20/13
f 12/12/14 18/22/14 15/15/14 13/13/14
o Cube.002
v 0.246373 -0.020603 -0.246373
v -0.246373 -0.020603 -0.246373
v -0.246373 0.991509 -0.246373
v 0.246373 0.991509 -0.246373
v 0.246373 -0.020603 0.246373
v -0.246373 -0.020603 0.246373
v 0.246373 0.991509 0.246373
v -0.246373 0.991509 0.246373
vt 0.426175 0.211175
vt 0.543825 0.211175
vt 0.543825 0.211175
vt 0.426175 0.211175
vt 0.426175 0.328825
vt 0.426175 0.328825
vt 0.543825 0.328825
vt 0.543825 0.328825
vn 0.0000 0.0000 -1.0000
vn 1.0000 0.0000 0.0000
vn -1.0000 0.0000 0.0000
vn 0.0000 -0.0000 1.0000
usemtl Material.001
s 1
f 25/35/15 26/36/15 27/37/15 28/38/15
f 29/39/16 25/35/16 28/38/16 31/40/16
f 26/36/17 30/41/17 32/42/17 27/37/17
f 30/41/18 29/39/18 31/40/18 32/42/18
o Cube.003
v -0.246373 0.991509 -0.246373
v 0.246373 0.991509 -0.246373
v 0.246373 0.991509 0.246373
v -0.246373 0.991509 0.246373
v 0.807228 0.537452 -0.807228
v 0.807228 0.537452 0.807228
v -0.807228 0.537452 -0.807228
v -0.807228 0.537452 0.807228
v 1.059584 1.661903 1.059584
v 1.059584 1.661903 -1.059584
v 0.807228 1.963792 -0.807228
v 0.807228 1.963792 0.807228
v -1.059584 1.661903 -1.059584
v -1.059584 1.661903 1.059584
v -0.807228 1.963792 0.807228
v -0.807228 1.963792 -0.807228
v 0.331955 2.197363 -0.331955
v -0.331955 2.197363 -0.331955
v -0.331955 2.043677 -0.331955
v 0.331955 2.043677 -0.331955
v 0.573657 2.197363 0.573657
v -0.573657 2.197363 0.573657
v 0.573657 2.197363 -0.573657
v -0.573657 2.197363 -0.573657
v 0.331955 2.197363 0.331955
v -0.331955 2.197363 0.331955
v -0.331955 2.043677 0.331955
v 0.331955 2.043677 0.331955
v 1.059584 0.839341 1.059584
v -1.059584 0.839341 1.059584
v -1.059584 1.016074 1.059584
v 1.059584 1.016074 1.059584
v 1.059584 1.485170 1.059584
v -1.059584 1.485170 1.059584
v -1.059584 0.839341 -1.059584
v 1.059584 0.839341 -1.059584
v 1.059584 1.016074 -1.059584
v -1.059584 1.016074 -1.059584
v -1.059584 1.485170 -1.059584
v 1.059584 1.485170 -1.059584
vt 0.861175 0.868825
vt 0.861175 0.751175
vt 0.861175 0.751175
vt 0.861175 0.868825
vt 0.978825 0.751175
vt 0.978825 0.751175
vt 0.978825 0.868825
vt 0.978825 0.868825
vt 0.861175 0.868825
vt 0.861175 0.751175
vt 0.861175 0.751175
vt 0.861175 0.868825
vt 0.978825 0.751175
vt 0.978825 0.868825
vt 0.978825 0.868825
vt 0.978825 0.751175
vt 0.895810 0.785810
vt 0.944190 0.785810
vt 0.944190 0.785810
vt 0.895810 0.785810
vt 0.878196 0.851804
vt 0.961804 0.851804
vt 0.878196 0.768196
vt 0.961804 0.768196
vt 0.895809 0.834191
vt 0.944190 0.834190
vt 0.944190 0.834190
vt 0.895809 0.834191
vt 0.861175 0.868825
vt 0.978825 0.868825
vt 0.978825 0.868825
vt 0.861175 0.868825
vt 0.861175 0.868825
vt 0.978825 0.868825
vt 0.978825 0.751175
vt 0.861175 0.751175
vt 0.861175 0.751175
vt 0.978825 0.751175
vt 0.978825 0.751175
vt 0.861175 0.751175
vn -0.6292 -0.7772 -0.0000
vn 0.0000 -0.7772 0.6292
vn 0.0000 -0.7772 -0.6292
vn 0.6292 -0.7772 -0.0000
vn 0.7672 0.6414 0.0000
vn -0.7672 0.6414 0.0000
vn 0.0000 0.6414 -0.7672
vn 0.0000 -0.0000 1.0000
vn 0.0000 0.7071 0.7071
vn 0.7071 0.7071 0.0000
vn -0.7071 0.7071 0.0000
vn 0.0000 0.7071 -0.7071
vn 0.0000 0.6414 0.7672
vn 0.0000 1.0000 0.0000
vn -1.0000 0.0000 0.0000
vn 1.0000 0.0000 0.0000
vn 0.0000 0.0000 -1.0000
vn 0.0000 -0.6414 0.7672
vn 0.0000 -0.6414 -0.7672
vn -0.7672 -0.6414 -0.0000
vn 0.7672 -0.6414 -0.0000
usemtl Material.001
s 1
f 35/43/19 34/44/19 37/45/19 38/46/19
f 34/44/20 33/47/20 39/48/20 37/45/20
f 36/49/21 35/43/21 38/46/21 40/50/21
f 33/47/22 36/49/22 40/50/22 39/48/22
f 41/51/23 42/52/23 43/53/23 44/54/23
f 45/55/24 46/56/24 47/57/24 48/58/24
f 42/52/25 45/55/25 48/58/25 43/53/25
f 49/59/26 50/60/26 51/61/26 52/62/26
f 53/63/27 54/64/27 47/57/27 44/54/27
f 55/65/28 53/63/28 44/54/28 43/53/28
f 54/64/29 56/66/29 48/58/29 47/57/29
f 56/66/30 55/65/30 43/53/30 48/58/30
f 46/56/31 41/51/31 44/54/31 47/57/31
f 57/67/32 58/68/32 54/64/32 53/63/32
f 49/59/32 57/67/32 53/63/32 55/65/32
f 58/68/32 50/60/32 56/66/32 54/64/32
f 50/60/32 49/59/32 55/65/32 56/66/32
f 52/62/32 51/61/32 59/69/32 60/70/32
f 57/67/33 49/59/33 52/62/33 60/70/33
f 50/60/34 58/68/34 59/69/34 51/61/34
f 58/68/35 57/67/35 60/70/35 59/69/35
f 40/50/36 38/46/36 61/71/36 62/72/36
f 63/73/26 64/74/26 65/75/26 66/76/26
f 37/45/37 39/48/37 67/77/37 68/78/37
f 69/79/35 70/80/35 71/81/35 72/82/35
f 39/48/38 40/50/38 62/72/38 67/77/38
f 70/80/33 63/73/33 66/76/33 71/81/33
f 38/46/39 37/45/39 68/78/39 61/71/39
f 64/74/34 69/79/34 72/82/34 65/75/34
f 64/74/26 63/73/26 62/72/26 61/71/26
f 66/76/26 65/75/26 41/51/26 46/56/26
f 70/80/35 69/79/35 68/78/35 67/77/35
f 72/82/35 71/81/35 45/55/35 42/52/35
f 63/73/33 70/80/33 67/77/33 62/72/33
f 71/81/33 66/76/33 46/56/33 45/55/33
f 69/79/34 64/74/34 61/71/34 68/78/34
f 65/75/34 72/82/34 42/52/34 41/51/34
