# Blender v2.92.0 OBJ File: 'Lamp 4.blend'
# www.blender.org
mtllib Lamp 4.mtl
o Cube
v -0.635000 1.002208 0.635000
v -0.635000 1.002208 -0.635000
v 0.635000 1.002208 0.635000
v 0.635000 1.002208 -0.635000
v 0.971439 1.142068 -0.971439
v 0.857253 1.002208 -0.857253
v -0.971439 1.142068 -0.971439
v -0.857253 1.002208 -0.857253
v 0.857253 1.002208 0.857253
v 0.971439 1.142068 0.971439
v -0.971439 1.142068 0.971439
v -0.857253 1.002208 0.857253
v -0.617068 2.877356 0.617068
v -0.617068 2.877356 -0.617068
v 0.617068 2.877356 0.617068
v 0.617068 2.877356 -0.617068
v 0.464143 3.002208 -0.464143
v 0.464143 3.002208 0.464143
v -0.464143 3.002208 -0.464143
v -0.464143 3.002208 0.464143
v 0.316730 2.867014 -0.316730
v 0.316730 2.867014 0.316730
v -0.316730 2.867014 -0.316730
v -0.316730 2.867014 0.316730
v -0.353826 3.002208 0.353826
v -0.316730 2.965112 0.316730
v -0.353826 3.002208 -0.353826
v -0.316730 2.965112 -0.316730
v 0.316730 2.965112 0.316730
v 0.353826 3.002208 0.353826
v 0.353826 3.002208 -0.353826
v 0.316730 2.965112 -0.316730
vt 0.637693 0.721206
vt 0.637693 0.655992
vt 0.637693 0.655992
vt 0.637693 0.721206
vt 0.642253 0.590778
vt 0.698836 0.590778
vt 0.698836 0.655992
vt 0.642253 0.655992
vt 0.637693 0.590778
vt 0.637693 0.590778
vt 0.642253 0.525564
vt 0.698836 0.525564
vt 0.637693 0.525564
vt 0.637693 0.525564
vt 0.698836 0.721206
vt 0.642253 0.721206
vt 0.698836 0.786420
vt 0.642253 0.786420
vt 0.637693 0.786420
vt 0.637693 0.786420
vt 0.709930 0.663016
vt 0.709931 0.714182
vt 0.761097 0.663016
vt 0.702907 0.655992
vt 0.768121 0.655992
vt 0.761097 0.714182
vt 0.768121 0.721206
vt 0.702907 0.721206
vt 0.718056 0.706057
vt 0.718056 0.671141
vt 0.718056 0.671141
vt 0.718056 0.706057
vt 0.752972 0.671141
vt 0.752972 0.671141
vt 0.752972 0.706057
vt 0.752972 0.706057
vt 0.755016 0.669096
vt 0.716011 0.669096
vt 0.755016 0.708102
vt 0.716011 0.708102
vn 0.0000 -1.0000 0.0000
vn 0.0000 0.2001 -0.9798
vn -0.9798 0.2001 0.0000
vn 0.9798 0.2001 0.0000
vn 0.0000 0.2001 0.9798
vn 0.0000 -0.6324 0.7746
vn -0.7746 -0.6324 0.0000
vn 0.0000 -0.6324 -0.7746
vn 0.7746 -0.6324 0.0000
vn 0.6324 0.7746 0.0000
vn 0.0000 0.7746 -0.6324
vn -0.6324 0.7746 0.0000
vn 0.0000 0.7746 0.6324
vn -1.0000 0.0000 0.0000
vn 0.0000 0.0000 1.0000
vn 0.0000 0.0000 -1.0000
vn 0.0000 1.0000 0.0000
vn -0.7071 0.7071 0.0000
vn 0.0000 0.7071 0.7071
vn 0.7071 0.7071 0.0000
vn 0.0000 0.7071 -0.7071
vn 1.0000 0.0000 0.0000
usemtl Material
s off
f 3/1/1 4/2/1 6/3/1 9/4/1
f 7/5/2 14/6/2 16/7/2 5/8/2
f 4/2/1 2/9/1 8/10/1 6/3/1
f 11/11/3 13/12/3 14/6/3 7/5/3
f 2/9/1 1/13/1 12/14/1 8/10/1
f 5/8/4 16/7/4 15/15/4 10/16/4
f 10/16/5 15/15/5 13/17/5 11/18/5
f 1/19/1 3/1/1 9/4/1 12/20/1
f 12/20/6 9/4/6 10/16/6 11/18/6
f 8/10/7 12/14/7 11/11/7 7/5/7
f 6/3/8 8/10/8 7/5/8 5/8/8
f 9/4/9 6/3/9 5/8/9 10/16/9
f 17/21/10 18/22/10 15/15/10 16/7/10
f 19/23/11 17/21/11 16/24/11 14/25/11
f 20/26/12 19/23/12 14/25/12 13/27/12
f 18/22/13 20/26/13 13/27/13 15/28/13
f 29/29/14 32/30/14 21/31/14 22/32/14
f 32/30/15 28/33/15 23/34/15 21/31/15
f 26/35/16 29/29/16 22/32/16 24/36/16
f 27/37/17 31/38/17 17/21/17 19/23/17
f 21/31/17 23/34/17 24/36/17 22/32/17
f 25/39/17 27/37/17 19/23/17 20/26/17
f 31/38/17 30/40/17 18/22/17 17/21/17
f 30/40/17 25/39/17 20/26/17 18/22/17
f 32/30/18 29/29/18 30/40/18 31/38/18
f 28/33/19 32/30/19 31/38/19 27/37/19
f 26/35/20 28/33/20 27/37/20 25/39/20
f 29/29/21 26/35/21 25/39/21 30/40/21
f 28/33/22 26/35/22 24/36/22 23/34/22
o Cube.001
v 0.635000 0.737852 0.635000
v 0.635000 0.737852 -0.635000
v -0.635000 0.737852 0.635000
v -0.635000 0.737852 -0.635000
v -0.635000 1.002208 0.635000
v -0.635000 1.002208 -0.635000
v 0.635000 1.002208 0.635000
v 0.635000 1.002208 -0.635000
vt 0.095466 0.607549
vt 0.095466 0.693204
vt 0.095466 0.693204
vt 0.095466 0.607549
vt 0.095466 0.350586
vt 0.095466 0.436240
vt 0.095466 0.436240
vt 0.095466 0.350586
vt 0.095466 0.521895
vt 0.095466 0.521895
vn 0.0000 0.0000 1.0000
vn -1.0000 0.0000 0.0000
vn 1.0000 0.0000 0.0000
vn 0.0000 0.0000 -1.0000
usemtl Material
s off
f 39/41/23 37/42/23 35/43/23 33/44/23
f 37/45/24 38/46/24 36/47/24 35/48/24
f 40/49/25 39/41/25 33/44/25 34/50/25
f 38/46/26 40/49/26 34/50/26 36/47/26
o Cube.002
v 0.625496 0.006986 0.625496
v 0.625496 0.006986 -0.625496
v -0.625496 0.006986 0.625496
v -0.625496 0.006986 -0.625496
v 0.635000 0.737852 0.635000
v 0.635000 0.737852 -0.635000
v -0.635000 0.737852 0.635000
v -0.635000 0.737852 -0.635000
v -0.857253 0.737852 -0.857253
v -0.934903 0.610812 -0.934903
v 0.934903 0.610812 -0.934903
v 0.857253 0.737852 -0.857253
v 0.934903 0.610812 0.934903
v 0.857253 0.737852 0.857253
v -0.857253 0.737852 0.857253
v -0.934903 0.610812 0.934903
vt 0.916480 0.582996
vt 0.916480 0.658812
vt 0.916480 0.658812
vt 0.916480 0.582996
vt 0.916480 0.582996
vt 0.916480 0.658812
vt 0.916480 0.658812
vt 0.916480 0.582996
vt 0.840664 0.582996
vt 0.840664 0.658812
vt 0.916480 0.507180
vt 0.916480 0.507180
vt 0.916480 0.734628
vt 0.916480 0.734628
vt 0.916480 0.507180
vt 0.916480 0.507180
vt 0.916480 0.734628
vt 0.916480 0.734628
vt 0.916480 0.431364
vt 0.916480 0.431364
vt 0.916480 0.431364
vt 0.916480 0.431364
vn 0.8900 -0.4560 0.0000
vn 0.0000 1.0000 0.0000
vn 0.0000 -1.0000 0.0000
vn 0.0000 -0.4560 -0.8900
vn 0.0000 -0.4560 0.8900
vn 0.0000 0.5215 0.8532
vn 0.8532 0.5215 0.0000
vn -0.8532 0.5215 0.0000
vn 0.0000 0.5215 -0.8532
vn -0.8900 -0.4560 0.0000
usemtl Material
s off
f 51/51/27 53/52/27 41/53/27 42/54/27
f 46/55/28 45/56/28 54/57/28 52/58/28
f 44/59/29 42/54/29 41/53/29 43/60/29
f 50/61/30 51/51/30 42/54/30 44/62/30
f 45/56/28 47/63/28 55/64/28 54/57/28
f 48/65/28 46/55/28 52/58/28 49/66/28
f 53/52/31 56/67/31 43/68/31 41/53/31
f 47/69/28 48/65/28 49/66/28 55/70/28
f 56/67/32 53/52/32 54/57/32 55/64/32
f 53/52/33 51/51/33 52/58/33 54/57/33
f 50/61/34 56/71/34 55/70/34 49/66/34
f 51/51/35 50/61/35 49/66/35 52/58/35
f 56/71/36 50/61/36 44/62/36 43/72/36
