# Blender v2.92.0 OBJ File: 'Lamp 5.blend'
# www.blender.org
mtllib Lamp 5.mtl
o Cube_Cube.001
v 1.000000 0.170278 1.000000
v 1.000000 0.170278 -1.000000
v -1.000000 0.170278 -1.000000
v -1.000000 0.170278 1.000000
v 0.904600 0.170278 -0.300982
v 1.000000 0.002503 -1.000000
v 0.904600 0.170278 0.300982
v 1.000000 0.002503 1.000000
v 0.302636 0.170278 -0.300982
v -1.000000 0.002503 -1.000000
v 0.302636 0.170278 0.300982
v -1.000000 0.002503 1.000000
v -1.350631 2.988727 -0.300982
v -1.350631 2.988727 -0.586982
v -1.350631 2.988727 0.586982
v -1.350631 2.988727 0.300982
vt 0.130912 0.576328
vt 0.145408 0.576328
vt 0.162240 0.593160
vt 0.114080 0.593160
vt 0.065920 0.545000
vt 0.114080 0.545000
vt 0.065920 0.593160
vt 0.130912 0.561832
vt 0.145407 0.561832
vt 0.162240 0.545000
vt 0.065920 0.496840
vt 0.114080 0.496840
vt 0.017760 0.545000
vt 0.017760 0.593160
vt 0.114080 0.641320
vt 0.065920 0.641320
vt 0.065920 0.448680
vt 0.114080 0.448680
vt 0.000000 0.000000
vt 0.000000 0.000000
vt 0.000000 0.000000
vt 0.000000 0.000000
vn 0.0000 1.0000 0.0000
vn 1.0000 0.0000 0.0000
vn 0.0000 0.0000 -1.0000
vn 0.0000 -1.0000 0.0000
vn 0.0000 0.0000 1.0000
vn -1.0000 0.0000 0.0000
usemtl Material.001
s off
f 7/1/1 11/2/1 4/3/1 1/4/1
f 6/5/2 2/6/2 1/4/2 8/7/2
f 5/8/1 7/1/1 1/4/1 2/6/1
f 9/9/1 5/8/1 2/6/1 3/10/1
f 10/11/3 3/12/3 2/6/3 6/5/3
f 10/13/4 6/5/4 8/7/4 12/14/4
f 11/2/1 9/9/1 3/10/1 4/3/1
f 8/7/5 1/4/5 4/15/5 12/16/5
f 12/17/6 4/18/6 3/12/6 10/11/6
f 13/19/5 16/20/5 15/21/5 14/22/5
o Cube.001_Cube.002
v 0.904600 2.988727 0.300982
v 0.302636 2.988727 0.300982
v 0.904600 2.988727 -0.300982
v 0.302636 2.988727 -0.300982
v 0.904600 0.170278 -0.300982
v 0.904600 0.170278 0.300982
v 0.302636 0.170278 -0.300982
v 0.302636 0.170278 0.300982
vt 0.553481 0.587377
vt 0.553481 0.662623
vt 0.553481 0.662623
vt 0.553481 0.587377
vt 0.478236 0.587377
vt 0.478236 0.587377
vt 0.478236 0.662623
vt 0.478236 0.662623
vn -1.0000 0.0000 0.0000
vn 0.0000 0.0000 -1.0000
vn 0.0000 0.0000 1.0000
vn 1.0000 0.0000 0.0000
usemtl Material.001
s off
f 23/23/7 24/24/7 18/25/7 20/26/7
f 21/27/8 23/23/8 20/26/8 19/28/8
f 24/24/9 22/29/9 17/30/9 18/25/9
f 22/29/10 21/27/10 19/28/10 17/30/10
o Cube.002_Cube.003
v 0.904600 2.988727 0.300982
v 0.904600 3.262189 -0.300982
v 0.904600 2.988727 -0.300982
v 0.904600 3.262189 0.300982
v 0.904600 3.262189 0.586982
v 0.904600 3.262189 -0.586982
v 0.302636 3.262189 -0.586982
v 0.302636 3.262189 0.586982
v 0.904600 2.988727 0.586982
v 0.904600 2.988727 -0.586982
v 0.302636 2.988727 -0.586982
v 0.302636 2.988727 0.586982
v -1.350631 3.262189 -0.300982
v -1.350631 3.262189 -0.586982
v -1.350631 2.988727 -0.300982
v -1.350631 2.988727 -0.586982
v -1.350631 3.262189 0.586982
v -1.350631 2.988727 0.586982
v -1.350631 2.988727 0.300982
v -1.350631 3.262189 0.300982
v 0.187374 3.559046 -0.426095
v 0.624344 3.559046 -0.426095
v 0.624344 3.559046 0.426095
v 0.624344 3.559046 0.218485
v 0.624344 3.559046 -0.218485
v -1.012744 3.559046 0.218485
v -1.012744 3.559046 0.426095
v -1.012744 3.559046 -0.218485
v -1.012744 3.559046 -0.426095
v 0.187374 3.559046 0.426095
vt 0.122623 0.627623
vt 0.122623 0.627623
vt 0.122623 0.627623
vt 0.122623 0.552377
vt 0.122623 0.552377
vt 0.122623 0.552377
vt 0.122623 0.552377
vt 0.122623 0.627623
vt 0.122623 0.627623
vt 0.122623 0.627623
vt 0.047377 0.627623
vt 0.047377 0.627623
vt 0.047377 0.552377
vt 0.122623 0.552377
vt 0.122623 0.552377
vt 0.047377 0.552377
vt 0.047377 0.552377
vt 0.047377 0.627623
vt 0.047377 0.627623
vt 0.047377 0.552377
vt 0.047377 0.552377
vt 0.122623 0.552377
vt 0.122623 0.552377
vt 0.122623 0.552377
vt 0.122623 0.627623
vt 0.122623 0.627623
vt 0.122623 0.627623
vt 0.047377 0.627623
vt 0.047377 0.627623
vt 0.047377 0.552377
vn -1.0000 0.0000 0.0000
vn 0.0000 0.0000 1.0000
vn 0.0000 0.0000 -1.0000
vn 1.0000 0.0000 0.0000
vn 0.0000 1.0000 0.0000
vn 0.7271 0.6865 0.0000
vn 0.0000 0.4765 0.8792
vn 0.0000 0.4765 -0.8792
vn -0.6600 0.7512 0.0000
usemtl Material.001
s off
f 42/31/11 41/32/11 44/33/11 37/34/11 38/35/11 40/36/11 39/37/11 43/38/11
f 32/39/12 41/32/12 42/31/12 36/40/12 33/41/12 29/42/12
f 34/43/13 35/44/13 40/36/13 38/35/13 31/45/13 30/46/13
f 34/43/14 30/46/14 26/47/14 28/48/14 29/42/14 33/41/14 25/49/14 27/50/14
f 46/51/15 45/52/15 53/53/15 52/54/15 50/55/15 51/56/15 54/57/15 47/58/15 48/59/15 49/60/15
f 29/42/16 28/48/16 26/47/16 30/46/16 46/51/16 49/60/16 48/59/16 47/58/16
f 41/32/17 32/39/17 29/42/17 47/58/17 54/57/17 51/56/17
f 31/45/18 38/35/18 53/53/18 45/52/18 46/51/18 30/46/18
f 44/33/19 41/32/19 51/56/19 50/55/19 52/54/19 53/53/19 38/35/19 37/34/19
o Cube.003_Cube.004
v 0.904600 2.988727 0.300982
v 0.302636 2.988727 0.300982
v 0.904600 2.988727 -0.300982
v 0.302636 2.988727 -0.300982
v 0.904600 2.988727 0.586982
v 0.904600 2.988727 -0.586982
v 0.302636 2.988727 -0.586982
v 0.302636 2.988727 0.586982
v -1.350631 2.988727 -0.300982
v -1.350631 2.988727 -0.586982
v -1.350631 2.988727 0.586982
v -1.350631 2.988727 0.300982
vt 0.297623 0.522377
vt 0.222377 0.522377
vt 0.222377 0.522377
vt 0.297623 0.522377
vt 0.297623 0.597623
vt 0.297623 0.597623
vt 0.297623 0.597623
vt 0.297623 0.597623
vt 0.297623 0.522377
vt 0.297623 0.522377
vt 0.222377 0.597623
vt 0.222377 0.597623
vn 0.0000 -1.0000 0.0000
usemtl Material.001
s off
f 61/61/20 60/62/20 57/63/20 58/64/20
f 56/65/20 62/66/20 65/67/20 66/68/20 63/69/20 64/70/20 61/61/20 58/64/20
f 59/71/20 62/66/20 56/65/20 55/72/20
