# Blender v2.92.0 OBJ File: 'Table3.blend'
# www.blender.org
mtllib Table3.mtl
o Cube
v 1.205817 1.706911 1.000000
v 1.205817 0.019591 1.000000
v 2.009695 1.706911 1.000000
v 2.009695 0.019591 1.000000
v -1.205818 1.706911 -1.000000
v 1.205817 0.019591 -1.000000
v -2.009695 0.019591 1.000000
v -2.009695 1.706911 1.000000
v -1.205817 1.706911 1.000000
v -1.205817 0.019591 1.000000
v 1.205817 1.706911 -1.000000
v -2.009695 1.706911 -1.000000
v 2.009695 1.706911 -1.000000
v 2.009695 0.019591 -1.000000
v -2.009695 0.019591 -1.000000
v -1.205818 0.019591 -1.000000
v 1.924695 1.664244 -0.957333
v 1.924695 1.664244 0.957333
v -1.924695 1.664244 -0.957333
v -1.924695 1.664244 0.957333
v -1.415842 1.496886 0.929000
v 1.415842 1.496886 0.929000
v 1.415842 1.496886 -0.929000
v 0.401939 1.706911 -1.000000
v -0.401939 1.706911 -1.000000
v -1.415842 1.496886 -0.929000
v -1.205817 1.716911 1.000000
v -0.401939 1.716911 1.000000
v 1.205817 1.716911 1.000000
v -1.205817 1.716911 -1.000000
v -0.401939 1.716911 -1.000000
v 0.401940 1.716911 -1.000000
v 1.205817 1.716911 -1.000000
v -1.924695 0.062258 -0.957333
v -1.924695 0.062258 0.957333
v -1.415842 0.229616 -0.929000
v 1.415842 0.229616 0.929000
v 1.924695 0.062258 0.957333
v 1.924695 0.062258 -0.957333
v -1.415842 0.229616 0.929000
v 1.415842 0.229616 -0.929000
v -0.672978 1.706911 0.729269
v -0.946194 1.706911 1.000000
v 0.401939 1.706911 0.729269
v -0.401939 1.706911 0.729269
v 0.678904 1.706911 0.729269
v 0.949635 1.716911 1.000000
v 0.949635 1.706911 1.000000
v 1.977037 1.907103 -0.967342
v 2.009695 1.874445 -1.000000
v 1.977037 1.907103 0.967342
v 2.009695 1.874445 1.000000
v -1.977037 1.907103 -0.967342
v -2.009695 1.874445 -1.000000
v -1.977037 1.907103 0.967342
v -2.009695 1.874445 1.000000
v -0.672978 1.874445 0.729269
v -0.686418 1.907103 0.696611
v -0.946194 1.874445 1.000000
v -0.959634 1.907103 0.967342
v 0.678904 1.874445 0.729269
v 0.692431 1.907103 0.696611
v 0.963162 1.907103 0.967342
v 0.949635 1.874445 1.000000
v -1.799670 1.496886 -0.929000
v -1.799670 1.496886 0.929000
v 1.799670 1.496886 0.929000
v 1.799670 1.496886 -0.929000
v -1.799670 0.229616 -0.929000
v -1.799670 0.229616 0.929000
v 1.799670 0.229616 0.929000
v 1.799670 0.229616 -0.929000
v -2.009695 0.062258 -0.957333
v -2.009695 1.664244 -0.957333
v -2.009695 0.062258 0.957333
v 2.009695 0.062258 0.957333
v 2.009695 0.062258 -0.957333
v -2.009695 1.664244 0.957333
v 2.009695 1.664244 0.957333
v 2.009695 1.664244 -0.957333
v -1.799670 0.229616 -0.983130
v -1.816540 0.212746 -1.000000
v -1.398972 0.212746 1.000000
v -1.415842 0.229616 0.983130
v -1.799670 1.496886 -0.983130
v -1.816540 1.513756 -1.000000
v 1.415842 0.229616 0.983130
v 1.398972 0.212746 1.000000
v -1.415842 1.496886 0.983130
v -1.398972 1.513756 1.000000
v 1.799670 0.229616 0.983130
v 1.816540 0.212746 1.000000
v 1.415842 0.229616 -0.983130
v 1.398972 0.212746 -1.000000
v 1.816540 0.212746 -1.000000
v 1.799670 0.229616 -0.983130
v 1.415842 1.496886 -0.983130
v 1.398972 1.513756 -1.000000
v 1.816540 1.513756 -1.000000
v 1.799670 1.496886 -0.983130
v -1.816540 0.212746 1.000000
v -1.799670 0.229616 0.983130
v -1.799670 1.496886 0.983130
v -1.816540 1.513756 1.000000
v 1.799670 1.496886 0.983130
v 1.816540 1.513756 1.000000
v 1.398972 1.513756 1.000000
v 1.415842 1.496886 0.983130
v -1.398972 0.212746 -1.000000
v -1.415842 0.229616 -0.983130
v -1.415842 1.496886 -0.983130
v -1.398972 1.513756 -1.000000
vt 0.779419 0.578793
vt 0.779419 0.578792
vt 0.779419 0.582058
vt 0.779419 0.582058
vt 0.779419 0.714691
vt 0.779419 0.707632
vt 0.779419 0.704367
vt 0.779419 0.717956
vt 0.779419 0.761991
vt 0.779419 0.769050
vt 0.779419 0.772316
vt 0.779419 0.758726
vt 0.779419 0.714406
vt 0.779419 0.714406
vt 0.779419 0.714406
vt 0.779419 0.714406
vt 0.677495 0.500519
vt 0.677495 0.500519
vt 0.677495 0.500519
vt 0.677495 0.500519
vt 0.677495 0.500519
vt 0.677495 0.500519
vt 0.752239 0.695168
vt 0.738649 0.695168
vt 0.738649 0.636417
vt 0.752239 0.636417
vt 0.779419 0.714691
vt 0.779419 0.717956
vt 0.761498 0.704367
vt 0.756921 0.695169
vt 0.765829 0.636417
vt 0.765829 0.704367
vt 0.779419 0.707632
vt 0.779419 0.704367
vt 0.765829 0.636417
vt 0.765829 0.704367
vt 0.836283 0.704367
vt 0.836283 0.722287
vt 0.782813 0.722287
vt 0.782813 0.717956
vt 0.779419 0.567018
vt 0.779419 0.567018
vt 0.779419 0.568468
vt 0.779419 0.568468
vt 0.779419 0.637867
vt 0.779419 0.637867
vt 0.779419 0.637867
vt 0.779419 0.637867
vt 0.779419 0.632867
vt 0.779419 0.626378
vt 0.779419 0.626378
vt 0.779419 0.632867
vt 0.779419 0.626378
vt 0.779419 0.626378
vt 0.779419 0.762276
vt 0.779419 0.762276
vt 0.779419 0.762276
vt 0.779419 0.762276
vt 0.779419 0.633152
vt 0.779419 0.626093
vt 0.779419 0.622827
vt 0.779419 0.636417
vt 0.779419 0.578507
vt 0.779419 0.572019
vt 0.779419 0.572019
vt 0.779419 0.578507
vt 0.779419 0.501968
vt 0.779419 0.500519
vt 0.779419 0.609238
vt 0.782813 0.609238
vt 0.782813 0.622827
vt 0.779419 0.633152
vt 0.779419 0.636417
vt 0.779419 0.626093
vt 0.779419 0.622827
vt 0.836283 0.500519
vt 0.836283 0.568468
vt 0.847920 0.637527
vt 0.914765 0.637527
vt 0.914765 0.703257
vt 0.897565 0.703257
vt 0.892947 0.694059
vt 0.869637 0.694059
vt 0.865060 0.703257
vt 0.847920 0.703257
vt 0.779419 0.501968
vt 0.779419 0.501968
vt 0.779419 0.501968
vt 0.836283 0.636417
vt 0.711469 0.636417
vt 0.725059 0.636417
vt 0.725059 0.704367
vt 0.711469 0.704367
vt 0.725059 0.636417
vt 0.725059 0.704367
vt 0.779419 0.567018
vt 0.734067 0.695168
vt 0.729448 0.704367
vt 0.779419 0.702917
vt 0.779419 0.702917
vt 0.779419 0.754337
vt 0.836283 0.754337
vt 0.836283 0.772316
vt 0.779419 0.772316
vt 0.779419 0.758726
vt 0.779419 0.632867
vt 0.779419 0.632867
vt 0.779419 0.707917
vt 0.779419 0.707917
vt 0.779419 0.702917
vt 0.779419 0.572019
vt 0.779419 0.578507
vt 0.779419 0.578507
vt 0.779419 0.572019
vt 0.779419 0.571733
vt 0.779419 0.769050
vt 0.677495 0.500519
vt 0.677495 0.500519
vt 0.677495 0.500519
vt 0.782813 0.582058
vt 0.782813 0.595648
vt 0.779419 0.595648
vt 0.779419 0.702917
vt 0.779419 0.722287
vt 0.779419 0.500519
vt 0.779419 0.567018
vt 0.677495 0.500519
vt 0.677495 0.500519
vt 0.779419 0.768765
vt 0.779419 0.768765
vt 0.779419 0.768765
vt 0.779419 0.768765
vt 0.779419 0.707917
vt 0.779419 0.707917
vt 0.779419 0.761991
vt 0.779419 0.571733
vn -0.0000 0.0000 -1.0000
vn 0.0000 0.0000 1.0000
vn 1.0000 0.0000 0.0000
vn -0.0000 -1.0000 0.0000
vn -1.0000 0.0000 0.0000
vn 0.0000 1.0000 0.0000
vn -0.7071 0.0000 0.7071
vn 0.7039 0.0000 0.7103
vn -0.7071 0.0000 -0.7071
vn 0.0000 -0.7071 0.7071
vn 0.7071 0.0000 0.7071
vn -0.0000 -0.7071 -0.7071
vn 0.7071 0.0000 -0.7071
vn 0.0000 0.7071 -0.7071
vn -0.0000 0.7071 0.7071
usemtl Material
s 1
f 109/1/1 112/2/1 5/3/1 16/4/1
f 107/5/2 106/6/2 3/7/2 1/8/2
f 83/9/2 101/10/2 7/11/2 10/12/2
f 37/13/3 22/14/3 108/15/3 87/16/3
f 57/17/2 42/18/2 45/19/2 44/20/2 46/21/2 61/22/2
f 44/23/4 45/24/4 25/25/4 24/26/4
f 88/27/2 107/5/2 1/8/2 2/28/2
f 48/29/4 46/30/4 44/23/4 24/26/4 11/31/4 1/32/4
f 92/33/2 88/27/2 2/28/2 4/34/2
f 1/32/5 11/31/5 6/35/5 2/36/5
f 3/7/2 52/37/2 64/38/2 47/39/2 29/40/2 1/8/2
f 73/41/5 74/42/5 12/43/5 15/44/5
f 17/45/2 39/46/2 77/47/2 80/48/2
f 68/49/4 23/50/4 97/51/4 100/52/4
f 23/50/3 41/53/3 93/54/3 97/51/3
f 21/55/5 40/56/5 84/57/5 89/58/5
f 99/59/1 98/60/1 11/61/1 13/62/1
f 26/63/4 65/64/4 85/65/4 111/66/4
f 74/42/5 78/67/5 8/68/5 12/43/5
f 24/69/1 32/70/1 33/71/1 11/61/1
f 95/72/1 99/59/1 13/62/1 14/73/1
f 94/74/1 95/72/1 14/73/1 6/75/1
f 8/68/5 56/76/5 54/77/5 12/43/5
f 49/78/6 53/79/6 55/80/6 60/81/6 58/82/6 62/83/6 63/84/6 51/85/6
f 20/86/1 35/87/1 75/88/1 78/67/1
f 13/62/3 50/89/3 52/37/3 3/7/3
f 15/90/4 16/91/4 10/92/4 7/93/4
f 5/94/3 9/95/3 10/92/3 16/91/3
f 19/96/4 20/86/4 78/67/4 74/42/4
f 9/95/4 5/94/4 25/25/4 45/24/4 42/97/4 43/98/4
f 18/99/4 17/45/4 80/48/4 79/100/4
f 43/101/2 59/102/2 56/103/2 8/104/2 9/105/2
f 72/106/5 68/49/5 100/52/5 96/107/5
f 22/14/4 67/108/4 105/109/4 108/15/4
f 2/36/4 6/35/4 14/73/4 4/34/4
f 77/47/3 76/110/3 4/34/3 14/73/3
f 69/111/6 36/112/6 110/113/6 81/114/6
f 112/2/1 86/115/1 12/43/1 5/3/1
f 41/53/6 72/106/6 96/107/6 93/54/6
f 101/10/2 104/116/2 8/104/2 7/11/2
f 61/22/7 46/21/7 48/117/7 47/118/7 64/119/7
f 11/61/1 33/71/1 13/62/1
f 5/3/1 30/120/1 31/121/1 25/122/1
f 38/123/1 18/99/1 79/100/1 76/110/1
f 12/43/1 54/77/1 50/89/1 13/62/1 33/71/1 32/70/1 24/69/1 25/122/1 31/121/1 30/120/1 5/3/1
f 1/8/2 29/40/2 47/39/2 48/124/2
f 78/67/5 75/88/5 7/125/5 8/68/5
f 34/126/2 19/96/2 74/42/2 73/41/2
f 79/100/3 80/48/3 13/62/3 3/7/3
f 35/87/6 34/126/6 73/41/6 75/88/6
f 80/48/3 77/47/3 14/73/3 13/62/3
f 42/18/8 57/17/8 59/127/8 43/128/8
f 36/112/5 26/63/5 111/66/5 110/113/5
f 40/56/6 70/129/6 102/130/6 84/57/6
f 66/131/4 21/55/4 89/58/4 103/132/4
f 67/108/5 71/133/5 91/134/5 105/109/5
f 76/110/3 79/100/3 3/7/3 4/34/3
f 98/60/1 94/74/1 6/75/1 11/61/1
f 104/116/2 90/135/2 9/105/2 8/104/2
f 71/133/6 37/13/6 87/16/6 91/134/6
f 90/135/2 83/9/2 10/12/2 9/105/2
f 86/115/1 82/136/1 15/44/1 12/43/1
f 70/129/3 66/131/3 103/132/3 102/130/3
f 75/88/5 73/41/5 15/44/5 7/125/5
f 39/46/6 38/123/6 76/110/6 77/47/6
f 82/136/1 109/1/1 16/4/1 15/44/1
f 106/6/2 92/33/2 4/34/2 3/7/2
f 112/2/9 109/1/9 110/113/9 111/66/9
f 108/15/10 105/109/10 106/6/10 107/5/10
f 104/116/11 101/10/11 102/130/11 103/132/11
f 100/52/12 97/51/12 98/60/12 99/59/12
f 96/107/9 100/52/9 99/59/9 95/72/9
f 97/51/13 93/54/13 94/74/13 98/60/13
f 92/33/7 106/6/7 105/109/7 91/134/7
f 103/132/10 89/58/10 90/135/10 104/116/10
f 95/72/14 94/74/14 93/54/14 96/107/14
f 88/27/15 92/33/15 91/134/15 87/16/15
f 111/66/12 85/65/12 86/115/12 112/2/12
f 101/10/15 83/9/15 84/57/15 102/130/15
f 82/136/13 86/115/13 85/65/13 81/114/13
f 87/16/11 108/15/11 107/5/11 88/27/11
f 83/9/7 90/135/7 89/58/7 84/57/7
f 109/1/14 82/136/14 81/114/14 110/113/14
f 65/64/3 69/111/3 81/114/3 85/65/3
o Cube.001
v -1.415842 1.496886 0.929000
v 1.415842 1.496886 0.929000
v 1.415842 1.496886 -0.929000
v -1.415842 1.496886 -0.929000
v -1.415842 0.229616 -0.929000
v 1.415842 0.229616 0.929000
v -1.415842 0.229616 0.929000
v 1.415842 0.229616 -0.929000
v -1.799670 1.496886 -0.929000
v -1.799670 1.496886 0.929000
v 1.799670 1.496886 0.929000
v 1.799670 1.496886 -0.929000
v -1.799670 0.229616 -0.929000
v -1.799670 0.229616 0.929000
v 1.799670 0.229616 0.929000
v 1.799670 0.229616 -0.929000
vt 0.399743 0.899934
vt 0.399743 0.935802
vt 0.399743 0.935802
vt 0.399743 0.899934
vt 0.399743 0.776456
vt 0.399743 0.812325
vt 0.399743 0.812325
vt 0.399743 0.776456
vt 0.474273 0.896533
vt 0.474273 0.932401
vt 0.474273 0.932401
vt 0.474273 0.896533
vt 0.474273 0.773056
vt 0.474273 0.808924
vt 0.474273 0.808924
vt 0.474273 0.773056
vn 0.0000 0.0000 -1.0000
vn 0.0000 0.0000 1.0000
usemtl Material
s 1
f 115/137/16 124/138/16 128/139/16 120/140/16
f 121/141/16 116/142/16 117/143/16 125/144/16
f 113/145/17 122/146/17 126/147/17 119/148/17
f 123/149/17 114/150/17 118/151/17 127/152/17
o Cube.002
v 1.924695 1.664244 -0.957333
v 1.924695 1.664244 0.957333
v -1.924695 1.664244 -0.957333
v -1.924695 1.664244 0.957333
v -1.924695 0.062258 -0.957333
v -1.924695 0.062258 0.957333
v 1.924695 0.062258 0.957333
v 1.924695 0.062258 -0.957333
vt 0.468012 0.213896
vt 0.468012 0.453230
vt 0.468012 0.453230
vt 0.468012 0.213896
vt 0.424606 0.216160
vt 0.424606 0.455493
vt 0.424606 0.455493
vt 0.424606 0.216160
vn 1.0000 0.0000 0.0000
vn -1.0000 0.0000 0.0000
usemtl Material
s 1
f 129/153/18 130/154/18 135/155/18 136/156/18
f 132/157/19 131/158/19 133/159/19 134/160/19
o Cube.003
v 1.977037 1.907103 -0.967342
v 2.009695 1.874445 -1.000000
v 1.977037 1.907103 0.967342
v 2.009695 1.874445 1.000000
v -1.977037 1.907103 -0.967342
v -2.009695 1.874445 -1.000000
v -1.977037 1.907103 0.967342
v -2.009695 1.874445 1.000000
v -0.672978 1.874445 0.729269
v -0.686418 1.907103 0.696611
v -0.946194 1.874445 1.000000
v -0.959634 1.907103 0.967342
v 0.678904 1.874445 0.729269
v 0.692431 1.907103 0.696611
v 0.963162 1.907103 0.967342
v 0.949635 1.874445 1.000000
vt 0.082213 0.671163
vt 0.125691 0.671163
vt 0.126271 0.673978
vt 0.080812 0.673978
vt 0.195854 0.650645
vt 0.137881 0.650645
vt 0.137301 0.647831
vt 0.196430 0.647831
vt 0.208147 0.671163
vt 0.251776 0.671163
vt 0.253177 0.673978
vt 0.207570 0.673978
vt 0.251776 0.504427
vt 0.253177 0.501613
vt 0.082213 0.504428
vt 0.080812 0.501613
vt 0.052694 0.673978
vt 0.052694 0.501613
vn 0.0000 0.7071 0.7071
vn 0.4977 0.7071 0.5023
vn -0.7071 0.7071 0.0000
vn -0.5000 0.7071 0.5000
vn 0.0000 0.7071 -0.7071
vn 0.7071 0.7071 0.0000
usemtl Material
s 1
f 139/161/20 151/162/20 152/163/20 140/164/20
f 145/165/20 149/166/20 150/167/20 146/168/20
f 148/169/20 143/170/20 144/171/20 147/172/20
f 146/168/21 148/169/21 147/172/21 145/165/21
f 143/170/22 141/173/22 142/174/22 144/171/22
f 149/166/23 152/163/23 151/162/23 150/167/23
f 141/173/24 137/175/24 138/176/24 142/174/24
f 137/175/25 139/161/25 140/177/25 138/178/25
