# Blender v2.92.0 OBJ File: 'Table2.blend'
# www.blender.org
mtllib Table2.mtl
o Cube
v 1.804888 0.507339 1.000000
v 3.008146 0.507339 1.000000
v 0.601629 0.507339 -1.000000
v 1.804888 0.507339 -1.000000
v -3.008146 1.000000 -1.000000
v -0.601629 0.507339 -1.000000
v -3.008146 0.507339 -1.000000
v -1.804888 0.507339 -1.000000
v -3.008146 0.507339 1.000000
v 3.008146 0.507339 -1.000000
v 3.008146 1.000000 -1.000000
v -1.804888 0.507339 1.000000
v -3.008146 1.000000 1.000000
v 3.008146 1.000000 1.000000
v -1.804888 0.517339 1.000000
v -0.601629 0.517339 1.000000
v -0.601629 0.517339 -1.000000
v -1.804887 0.517339 -1.000000
v 0.601629 0.517339 1.000000
v 1.804888 0.517339 1.000000
v -2.171719 -1.980716 0.321946
v -2.171719 -1.980716 -0.321946
v -2.171719 -1.980716 -0.600000
v -2.641315 -1.980716 0.321946
v -2.641315 -1.980716 -0.321946
v -2.641315 -1.980716 -0.600000
v 2.641315 -1.980716 -0.321946
v 2.641315 -1.980716 0.321946
v 2.641315 -1.980716 0.600000
v 2.171719 -1.980716 0.321946
v 2.171719 -1.980716 -0.321946
v 2.171719 -1.980716 -0.600000
v 2.171719 -1.980716 0.600000
v -2.171719 -1.980716 0.600000
v 2.171719 -1.980716 -0.878054
v -2.171719 -1.980716 0.878054
v 2.641315 -1.980716 -0.878054
v 2.641315 -1.980716 -0.600000
v 2.641315 -1.980716 0.878054
v 2.171719 -1.980716 0.878054
v -2.641315 -1.980716 -0.878054
v -2.171719 -1.980716 -0.878054
v -2.641315 -1.980716 0.878054
v -2.641315 -1.980716 0.600000
v -1.804888 0.507339 0.200000
v -1.804888 0.507339 -0.200000
v -1.804888 0.507339 -0.600000
v -3.008146 0.507339 0.200000
v -3.008146 0.507339 -0.200000
v -3.008146 0.507339 -0.600000
v 3.008146 0.507339 -0.200000
v 3.008146 0.507339 0.200000
v 3.008146 0.507339 0.600000
v 1.804888 0.507339 0.200000
v 1.804888 0.507339 -0.200000
v 1.804888 0.507339 -0.600000
v 1.804888 0.507339 0.600000
v -1.804888 0.507339 0.600000
v 1.804888 0.507339 -1.364000
v -1.804888 0.507339 1.364000
v 3.008146 0.507339 -1.364000
v 3.008146 0.507339 -0.600000
v 3.008146 0.507339 1.364000
v 1.804888 0.507339 1.364000
v -3.008146 0.507339 -1.364000
v -1.804888 0.507339 -1.364000
v -3.008146 0.507339 1.364000
v -3.008146 0.507339 0.600000
v -2.171719 0.507339 0.600000
v -2.171719 0.507339 0.321946
v -2.171719 0.507339 -0.321946
v -2.171719 0.507339 -0.600000
v -2.641315 0.507339 0.600000
v -2.641315 0.507339 0.321946
v -2.641315 0.507339 -0.321946
v -2.641315 0.507339 -0.600000
v 3.008146 1.000000 0.600000
v 3.008146 1.000000 0.200000
v 3.008146 1.000000 -0.200000
v 3.008146 1.000000 -0.600000
v 2.641315 0.507339 -0.600000
v 2.641315 0.507339 -0.321946
v 2.641315 0.507339 0.321946
v 2.641315 0.507339 0.600000
v -3.008146 1.000000 -0.600000
v -3.008146 1.000000 -0.200000
v -3.008146 1.000000 0.200000
v -3.008146 1.000000 0.600000
v 2.171719 0.507339 0.600000
v 2.171719 0.507339 0.321946
v 2.171719 0.507339 -0.321946
v 2.171719 0.507339 -0.600000
v 1.804887 0.517339 -1.000000
v 0.601629 0.517339 -1.000000
v -0.601629 0.517339 -1.364000
v -1.804887 0.517339 -1.364000
v 1.804888 0.517339 1.364000
v 0.601629 0.517339 1.364000
v -0.601629 0.517339 1.364000
v -1.804888 0.517339 1.364000
v -2.171719 0.507339 -0.878054
v -0.601629 0.507339 -1.364000
v 0.601629 0.507339 -1.364000
v 2.171719 0.507339 -0.878054
v 2.171719 0.507339 0.878054
v 0.601629 0.507339 1.000000
v -0.601629 0.507339 1.000000
v -2.171719 0.507339 0.878054
v -2.641315 0.507339 0.878054
v -3.008146 1.000000 1.364000
v -2.641315 0.507339 -0.878054
v -3.008146 1.000000 -1.364000
v 2.641315 0.507339 0.878054
v 3.008146 1.000000 1.364000
v 2.641315 0.507339 -0.878054
v 3.008146 1.000000 -1.364000
vt 0.398539 0.796110
vt 0.398539 0.838411
vt 0.398539 0.838411
vt 0.398539 0.796110
vt 0.195635 0.639800
vt 0.212144 0.639800
vt 0.212144 0.669206
vt 0.212144 0.698611
vt 0.195635 0.698611
vt 0.195635 0.669206
vt 0.394246 0.838411
vt 0.398539 0.880713
vt 0.394246 0.880713
vt 0.394246 0.669206
vt 0.605754 0.669206
vt 0.605754 0.711507
vt 0.394246 0.711507
vt 0.394246 0.330794
vt 0.398540 0.330794
vt 0.398540 0.373096
vt 0.394246 0.373096
vt 0.364841 0.639801
vt 0.381350 0.639800
vt 0.381350 0.639800
vt 0.364841 0.639801
vt 0.195635 0.698611
vt 0.195635 0.669206
vt 0.394246 0.457699
vt 0.394246 0.500000
vt 0.394246 0.500000
vt 0.394246 0.457699
vt 0.394246 0.711507
vt 0.605754 0.711507
vt 0.605754 0.923014
vt 0.394246 0.923014
vt 0.394246 0.880713
vt 0.398539 0.880713
vt 0.398539 0.753808
vt 0.394246 0.753808
vt 0.182739 0.711507
vt 0.182739 0.669206
vt 0.605754 0.923014
vt 0.381350 0.669206
vt 0.381350 0.669206
vt 0.398539 0.753808
vt 0.398540 0.330794
vt 0.398540 0.373096
vt 0.195635 0.512896
vt 0.212144 0.512896
vt 0.212144 0.512896
vt 0.195635 0.512896
vt 0.605754 0.500000
vt 0.605754 0.288493
vt 0.605754 0.288493
vt 0.605754 0.500000
vt 0.394246 0.923014
vt 0.364841 0.698611
vt 0.381350 0.698611
vt 0.351945 0.711507
vt 0.212144 0.639800
vt 0.212144 0.669206
vt 0.394246 0.415397
vt 0.394246 0.415397
vt 0.364841 0.669206
vt 0.364841 0.669206
vt 0.364841 0.698611
vt 0.394246 0.753808
vt 0.212144 0.571707
vt 0.212144 0.542301
vt 0.225041 0.542301
vt 0.225041 0.584603
vt 0.225041 0.500000
vt 0.394246 0.626904
vt 0.605754 0.626904
vt 0.212144 0.698611
vt 0.394246 0.161589
vt 0.605754 0.161589
vt 0.605754 0.203890
vt 0.394246 0.203890
vt 0.394246 0.246191
vt 0.605754 0.246191
vt 0.394246 0.288493
vt 0.351945 0.669206
vt 0.195635 0.639800
vt 0.381350 0.542301
vt 0.381350 0.571707
vt 0.381350 0.571707
vt 0.381350 0.542301
vt 0.381350 0.512896
vt 0.364841 0.512896
vt 0.351945 0.500000
vt 0.212144 0.542301
vt 0.394246 0.542301
vt 0.195635 0.542301
vt 0.182739 0.542301
vt 0.182739 0.500000
vt 0.225041 0.626904
vt 0.225041 0.669206
vt 0.351945 0.626904
vt 0.195635 0.571707
vt 0.195635 0.542301
vt 0.195635 0.571707
vt 0.394246 0.373096
vt 0.364841 0.571707
vt 0.394246 0.584603
vt 0.351945 0.584603
vt 0.817261 0.500000
vt 0.817261 0.542301
vt 0.817261 0.584603
vt 0.817261 0.626904
vt 0.817261 0.669206
vt 0.817261 0.711507
vt 0.605754 0.584603
vt 0.605754 0.542301
vt 0.394246 0.796110
vt 0.364841 0.571707
vt 0.212144 0.571707
vt 0.364841 0.542301
vt 0.364841 0.512896
vt 0.381350 0.512896
vt 0.225041 0.711507
vt 0.394246 0.288493
vt 0.364841 0.542301
vt 0.381350 0.698611
vt 0.182739 0.626904
vt 0.394246 0.330794
vt 0.351945 0.542301
vt 0.182739 0.584603
vt 0.394246 0.119287
vt 0.605754 0.119287
vt 0.394246 0.076986
vt 0.605754 0.076986
vt 0.267342 0.500000
vt 0.309644 0.500000
vt 0.309644 0.711507
vt 0.267342 0.711507
vn 0.0000 -1.0000 0.0000
vn 0.0000 0.0000 1.0000
vn 1.0000 0.0000 0.0000
vn 0.0000 0.0000 -1.0000
vn -1.0000 0.0000 0.0000
vn 0.0000 1.0000 0.0000
usemtl Material
s off
f 98/1/1 99/2/1 16/3/1 19/4/1
f 24/5/1 21/6/1 34/7/1 36/8/1 43/9/1 44/10/1
f 107/11/2 16/3/2 15/12/2 12/13/2
f 53/14/3 77/15/3 14/16/3 2/17/3
f 8/18/4 18/19/4 17/20/4 6/21/4
f 90/22/4 83/23/4 28/24/4 30/25/4
f 109/26/5 73/27/5 44/10/5 43/9/5
f 59/28/1 61/29/1 10/30/1 4/31/1
f 63/32/2 114/33/2 110/34/2 67/35/2 60/36/2 100/37/2 99/2/2 98/1/2 97/38/2 64/39/2
f 73/27/1 109/26/1 9/40/1 68/41/1
f 110/34/6 114/33/6 14/16/6 13/42/6
f 83/23/3 84/43/3 29/44/3 28/24/3
f 97/38/1 98/1/1 19/4/1 20/45/1
f 96/46/1 95/47/1 17/20/1 18/19/1
f 111/48/4 101/49/4 42/50/4 41/51/4
f 116/52/6 112/53/6 5/54/6 11/55/6
f 67/35/5 110/34/5 13/42/5 9/56/5
f 105/57/1 113/58/1 2/17/1 1/59/1
f 70/60/3 69/61/3 34/7/3 21/6/3
f 103/62/1 59/28/1 4/31/1 3/63/1
f 105/57/5 89/64/5 33/65/5 40/66/5
f 64/39/5 97/38/5 20/45/5 1/67/5
f 71/68/1 72/69/1 47/70/1 46/71/1
f 72/69/1 101/49/1 8/72/1 47/70/1
f 52/73/3 78/74/3 77/15/3 53/14/3
f 99/2/1 100/37/1 15/12/1 16/3/1
f 108/75/2 109/26/2 43/9/2 36/8/2
f 48/76/5 87/77/5 86/78/5 49/79/5
f 114/33/3 63/32/3 2/17/3 14/16/3
f 50/80/5 85/81/5 5/54/5 7/82/5
f 89/64/1 105/57/1 1/59/1 57/83/1
f 74/84/4 70/60/4 21/6/4 24/5/4
f 81/85/3 82/86/3 27/87/3 38/88/3
f 115/89/1 104/90/1 4/91/1 10/30/1
f 113/58/1 84/43/1 53/14/1 2/17/1
f 101/49/3 72/69/3 23/92/3 42/50/3
f 81/85/1 115/89/1 10/30/1 62/93/1
f 60/36/1 67/35/1 9/56/1 12/13/1
f 111/48/1 76/94/1 50/95/1 7/96/1
f 69/61/1 70/60/1 45/97/1 58/98/1
f 83/23/1 90/22/1 54/99/1 52/73/1
f 90/22/1 89/64/1 57/83/1 54/99/1
f 73/27/5 74/84/5 24/5/5 44/10/5
f 75/100/5 76/94/5 26/101/5 25/102/5
f 102/103/1 103/62/1 3/63/1 6/21/1
f 91/104/1 82/86/1 51/105/1 55/106/1
f 11/55/6 5/107/6 85/108/6 86/109/6 87/110/6 88/111/6 13/112/6 14/16/6 77/15/6 78/74/6 79/113/6 80/114/6
f 1/67/2 20/45/2 19/4/2 106/115/2
f 82/86/2 91/104/2 31/116/2 27/87/2
f 72/69/3 71/68/3 22/117/3 23/92/3
f 61/29/3 116/52/3 11/55/3 10/30/3
f 27/87/1 31/116/1 32/118/1 35/119/1 37/120/1 38/88/1
f 76/94/5 111/48/5 41/51/5 26/101/5
f 41/51/1 42/50/1 23/92/1 22/117/1 25/102/1 26/101/1
f 62/93/3 80/114/3 79/113/3 51/105/3
f 109/26/1 108/75/1 12/121/1 9/40/1
f 112/53/5 65/122/5 7/82/5 5/54/5
f 51/105/3 79/113/3 78/74/3 52/73/3
f 91/104/5 92/123/5 32/118/5 31/116/5
f 100/37/3 60/36/3 12/13/3 15/12/3
f 40/66/1 33/65/1 30/25/1 28/24/1 29/44/1 39/124/1
f 115/89/3 81/85/3 38/88/3 37/120/3
f 89/64/5 90/22/5 30/25/5 33/65/5
f 10/30/3 11/55/3 80/114/3 62/93/3
f 74/84/1 73/27/1 68/41/1 48/125/1
f 84/43/3 113/58/3 39/124/3 29/44/3
f 95/47/5 102/103/5 6/21/5 17/20/5
f 65/122/4 112/53/4 116/52/4 61/29/4 59/28/4 103/62/4 102/103/4 95/47/4 96/46/4 66/126/4
f 70/60/1 74/84/1 48/125/1 45/97/1
f 104/90/1 92/123/1 56/127/1 4/91/1
f 66/126/3 96/46/3 18/19/3 8/18/3
f 76/94/1 75/100/1 49/128/1 50/95/1
f 106/115/2 19/4/2 16/3/2 107/11/2
f 68/129/5 88/130/5 87/77/5 48/76/5
f 75/100/1 71/68/1 46/71/1 49/128/1
f 69/61/3 108/75/3 36/8/3 34/7/3
f 65/122/1 66/126/1 8/18/1 7/82/1
f 49/79/5 86/78/5 85/81/5 50/80/5
f 113/58/2 105/57/2 40/66/2 39/124/2
f 104/90/4 115/89/4 37/120/4 35/119/4
f 9/131/5 13/132/5 88/130/5 68/129/5
f 12/121/1 58/98/1 45/97/1 48/125/1 49/128/1 46/71/1 47/70/1 8/72/1 6/133/1 3/134/1 4/91/1 56/127/1 55/106/1 51/105/1 52/73/1 54/99/1 57/83/1 1/59/1 106/135/1 107/136/1
f 82/86/1 81/85/1 62/93/1 51/105/1
f 71/68/2 75/100/2 25/102/2 22/117/2
f 92/123/1 91/104/1 55/106/1 56/127/1
f 92/123/5 104/90/5 35/119/5 32/118/5
f 84/43/1 83/23/1 52/73/1 53/14/1
f 63/32/1 64/39/1 1/67/1 2/17/1
f 108/75/1 69/61/1 58/98/1 12/121/1
f 101/49/1 111/48/1 7/96/1 8/72/1
